<?xml version="1.0" encoding="utf-8" ?>
<svg baseProfile="full" height="1024px" version="1.1" width="1536px" xmlns="http://www.w3.org/2000/svg" xmlns:ev="http://www.w3.org/2001/xml-events" xmlns:xlink="http://www.w3.org/1999/xlink"><defs /><polygon fill="black" points="181,1023" /><polygon fill="black" points="186,1020 186,1022 187,1022 186,1021" /><polygon fill="black" points="187,1015 187,1016 186,1017 187,1018 186,1017 187,1016 188,1016" /><polygon fill="black" points="192,1009" /><polygon fill="black" points="190,1002" /><polygon fill="black" points="192,993" /><polygon fill="black" points="193,985" /><polygon fill="black" points="190,985 191,986" /><polygon fill="black" points="189,981" /><polygon fill="black" points="192,977 193,977" /><polygon fill="black" points="192,969 192,970" /><polygon fill="black" points="773,965" /><polygon fill="black" points="764,964" /><polygon fill="black" points="192,961" /><polygon fill="black" points="775,957" /><polygon fill="black" points="191,957" /><polygon fill="black" points="772,956" /><polygon fill="black" points="769,956" /><polygon fill="black" points="794,954" /><polygon fill="black" points="786,954" /><polygon fill="black" points="760,954" /><polygon fill="black" points="763,952 762,953 763,953 764,954 763,953" /><polygon fill="black" points="799,951" /><polygon fill="black" points="758,950" /><polygon fill="black" points="750,950 751,950" /><polygon fill="black" points="748,950" /><polygon fill="black" points="746,950" /><polygon fill="black" points="743,950" /><polygon fill="black" points="191,950" /><polygon fill="black" points="751,948" /><polygon fill="black" points="745,948" /><polygon fill="black" points="808,947" /><polygon fill="black" points="747,947 748,948" /><polygon fill="black" points="191,947 191,948" /><polygon fill="black" points="726,945 725,946" /><polygon fill="black" points="191,944" /><polygon fill="black" points="814,942" /><polygon fill="black" points="803,942" /><polygon fill="black" points="808,941 809,941 810,942 809,943 810,942 809,941" /><polygon fill="black" points="815,940" /><polygon fill="black" points="802,940" /><polygon fill="black" points="722,940" /><polygon fill="black" points="717,938" /><polygon fill="black" points="817,935" /><polygon fill="black" points="732,934" /><polygon fill="black" points="718,934" /><polygon fill="black" points="730,930" /><polygon fill="black" points="832,929 832,930" /><polygon fill="black" points="832,927" /><polygon fill="black" points="712,927 713,928 713,929 712,930 714,930 715,929 715,928 715,929 714,930 713,929 713,928" /><polygon fill="black" points="187,926 187,927 188,928 187,927" /><polygon fill="black" points="840,925" /><polygon fill="black" points="826,925" /><polygon fill="black" points="713,925" /><polygon fill="black" points="834,924 834,925" /><polygon fill="black" points="827,923" /><polygon fill="black" points="710,921" /><polygon fill="black" points="698,921" /><polygon fill="black" points="184,921 186,923 185,922 185,921" /><polygon fill="black" points="187,919 187,920 188,920 189,919 188,920" /><polygon fill="black" points="698,918" /><polygon fill="black" points="695,917" /><polygon fill="black" points="189,917" /><polygon fill="black" points="184,917 184,918 185,917" /><polygon fill="black" points="698,916" /><polygon fill="black" points="706,915 706,916 705,917 706,916" /><polygon fill="black" points="691,913 692,913" /><polygon fill="black" points="856,912" /><polygon fill="black" points="851,911" /><polygon fill="black" points="855,910 856,910" /><polygon fill="black" points="678,910" /><polygon fill="black" points="187,910 187,913 186,914 187,914 188,915 187,914 187,913 189,911 188,912 187,911" /><polygon fill="black" points="184,910 184,911 183,912 184,913 183,914 184,914 184,913 185,912 184,911" /><polygon fill="black" points="851,909" /><polygon fill="black" points="184,908" /><polygon fill="black" points="686,907" /><polygon fill="black" points="189,907" /><polygon fill="black" points="187,907" /><polygon fill="black" points="182,906" /><polygon fill="black" points="187,905" /><polygon fill="black" points="184,905 184,906 185,906 185,905" /><polygon fill="black" points="684,904 685,904" /><polygon fill="black" points="864,903 865,904" /><polygon fill="black" points="671,903" /><polygon fill="black" points="669,903" /><polygon fill="black" points="184,902 183,903" /><polygon fill="black" points="666,898" /><polygon fill="black" points="184,897 185,897" /><polygon fill="black" points="179,896" /><polygon fill="black" points="181,895" /><polygon fill="black" points="187,894" /><polygon fill="black" points="179,894" /><polygon fill="black" points="880,893" /><polygon fill="black" points="185,893 184,894" /><polygon fill="black" points="660,890 660,891" /><polygon fill="black" points="180,890 179,891" /><polygon fill="black" points="184,889" /><polygon fill="black" points="888,888 887,889 886,889 887,889" /><polygon fill="black" points="659,888" /><polygon fill="black" points="187,888" /><polygon fill="black" points="890,884 891,884" /><polygon fill="black" points="655,884" /><polygon fill="black" points="178,884" /><polygon fill="black" points="896,881" /><polygon fill="black" points="176,881" /><polygon fill="black" points="897,879 898,880" /><polygon fill="black" points="172,876 173,877" /><polygon fill="black" points="637,874" /><polygon fill="black" points="641,873 640,874" /><polygon fill="black" points="171,873" /><polygon fill="black" points="639,872" /><polygon fill="black" points="173,872" /><polygon fill="black" points="170,870" /><polygon fill="black" points="168,867" /><polygon fill="black" points="626,865" /><polygon fill="black" points="168,865" /><polygon fill="black" points="166,865 166,866" /><polygon fill="black" points="630,864 630,865 629,866 631,868 631,867 632,866 633,866 632,866" /><polygon fill="black" points="155,864 156,865" /><polygon fill="black" points="625,863" /><polygon fill="black" points="160,861 160,862" /><polygon fill="black" points="162,860 163,861" /><polygon fill="black" points="153,860" /><polygon fill="black" points="160,858" /><polygon fill="black" points="152,858" /><polygon fill="black" points="925,854" /><polygon fill="black" points="616,853" /><polygon fill="black" points="930,852" /><polygon fill="black" points="130,852" /><polygon fill="black" points="148,849" /><polygon fill="black" points="145,849 144,850 145,850" /><polygon fill="black" points="134,849 134,850 133,851 134,850" /><polygon fill="black" points="130,849" /><polygon fill="black" points="935,848 936,849" /><polygon fill="black" points="143,848" /><polygon fill="black" points="607,847 607,848 606,849 607,848" /><polygon fill="black" points="140,844" /><polygon fill="black" points="126,842 126,843" /><polygon fill="black" points="136,841 136,842" /><polygon fill="black" points="108,841" /><polygon fill="black" points="115,840" /><polygon fill="black" points="113,839 113,840 112,841 113,841" /><polygon fill="black" points="83,838" /><polygon fill="black" points="101,837" /><polygon fill="black" points="958,836 957,837" /><polygon fill="black" points="82,836" /><polygon fill="black" points="962,834" /><polygon fill="black" points="588,833" /><polygon fill="black" points="583,833" /><polygon fill="black" points="98,833" /><polygon fill="black" points="86,832" /><polygon fill="black" points="79,832 79,833" /><polygon fill="black" points="13,832" /><polygon fill="black" points="35,831 36,831" /><polygon fill="black" points="583,830" /><polygon fill="black" points="74,830" /><polygon fill="black" points="3,830" /><polygon fill="black" points="93,829" /><polygon fill="black" points="79,829" /><polygon fill="black" points="586,828" /><polygon fill="black" points="964,827" /><polygon fill="black" points="68,827" /><polygon fill="black" points="22,827 22,828" /><polygon fill="black" points="972,826" /><polygon fill="black" points="44,826 43,827 42,827 40,829 41,829 42,830 41,831 40,831 41,832 40,833 40,834 39,835 38,834 38,833 37,833 38,834 37,835 36,835 33,832 32,833 31,832 31,831 32,830 31,829 31,828 30,828 31,829 31,830 30,831 28,831 27,830 28,829 27,828 26,828 27,828 28,829 27,830 26,830 25,831 24,830 23,830 22,831 19,831 18,830 20,828 20,827 19,828 17,828 17,830 16,831 16,833 15,834 16,835 16,836 15,837 13,835 12,836 10,836 9,835 10,834 11,834 9,834 8,833 9,832 9,831 9,832 8,833 7,833 5,831 5,830 5,831 4,832 4,833 3,834 2,833 2,832 1,831 1,832 0,833 0,1023 177,1023 178,1022 179,1023 178,1022 178,1020 179,1019 180,1020 180,1021 181,1021 180,1020 181,1019 182,1019 184,1021 184,1022 184,1021 183,1020 184,1019 184,1017 184,1018 183,1019 182,1018 182,1016 183,1015 185,1015 184,1014 184,1012 185,1011 187,1013 188,1013 188,1012 189,1011 188,1011 186,1009 187,1008 188,1008 189,1009 187,1007 187,1005 186,1004 187,1003 187,1001 189,999 188,999 187,998 188,997 188,996 189,995 189,994 190,993 188,995 186,993 187,992 188,992 189,991 189,990 189,991 188,992 187,991 187,989 189,987 191,989 188,986 188,984 189,983 188,983 187,982 187,981 186,980 187,979 188,979 188,978 189,977 190,978 189,977 189,975 188,975 187,974 187,973 188,972 189,973 188,972 189,971 190,971 189,971 188,972 186,970 189,967 190,967 189,967 188,966 190,964 192,966 192,965 191,965 190,964 191,963 189,963 188,962 189,961 190,961 189,960 189,959 188,959 187,958 187,957 188,956 189,957 188,956 189,955 190,955 188,953 188,952 189,951 188,951 187,950 187,949 188,948 189,949 188,948 189,947 188,946 189,945 189,943 188,943 187,942 187,941 186,940 187,939 188,939 188,938 187,937 188,936 187,937 186,937 185,936 185,935 186,934 187,934 187,933 186,932 187,931 190,931 189,931 188,930 187,930 185,928 185,927 184,926 185,925 184,924 184,926 185,927 185,928 184,929 183,928 182,928 181,927 181,926 182,925 181,925 180,924 180,922 181,921 182,922 182,923 182,922 181,921 181,920 182,919 180,919 179,920 178,919 178,918 179,917 181,917 181,915 180,914 181,913 181,911 180,912 179,912 178,913 177,912 177,911 178,910 179,910 179,909 180,908 181,909 180,908 180,906 179,907 178,907 177,906 179,904 181,904 181,903 180,904 178,904 176,902 176,901 177,900 178,900 178,899 179,898 178,898 177,899 176,898 176,897 177,896 177,895 176,894 176,893 177,892 177,890 176,889 175,889 174,888 174,886 175,885 174,886 172,884 171,884 170,883 171,882 172,882 172,881 173,880 171,882 170,881 170,880 167,880 166,879 167,878 169,878 168,877 166,877 165,876 166,875 166,874 167,873 168,874 169,874 170,875 170,876 170,875 168,873 169,872 168,873 167,872 166,872 165,871 166,870 167,870 168,869 167,870 164,867 164,866 163,865 164,864 163,864 163,866 164,867 164,868 163,869 162,868 161,868 160,867 160,866 161,865 161,864 160,865 160,870 159,871 157,869 157,867 157,869 158,870 158,871 157,872 156,872 155,871 155,870 154,869 155,868 153,868 152,867 153,866 153,865 152,864 153,863 152,863 151,862 150,862 149,861 150,860 151,860 150,859 150,857 151,856 150,857 150,859 149,860 148,860 147,859 148,858 147,858 146,857 146,856 145,855 145,854 146,853 145,852 144,853 143,853 142,854 141,854 140,853 141,852 140,853 139,852 139,851 138,852 137,851 137,850 138,849 138,848 139,847 140,848 141,847 140,848 139,847 139,846 138,846 137,845 136,845 136,848 137,848 138,849 137,850 136,850 136,855 132,859 131,858 131,857 132,856 131,856 130,857 129,856 129,855 128,854 128,852 126,850 127,849 127,848 126,849 124,849 123,848 123,847 121,847 120,846 120,845 119,844 120,843 121,843 122,844 123,844 122,844 121,843 122,842 121,841 121,840 121,841 120,842 119,841 118,841 116,843 115,842 116,843 116,844 115,845 113,843 112,844 112,846 111,847 111,848 112,849 111,850 110,850 110,851 109,852 108,851 108,848 107,848 106,847 104,847 103,846 103,844 104,843 105,843 105,841 104,841 102,839 100,839 99,838 99,836 100,835 99,836 98,836 97,835 98,836 96,838 95,837 95,836 94,835 94,833 92,831 91,831 91,832 90,833 89,832 89,831 89,832 88,833 89,834 89,837 88,838 88,841 87,842 86,841 86,840 85,841 84,841 82,843 81,842 81,840 80,841 79,840 79,836 78,835 77,836 75,834 76,833 77,833 77,832 75,832 75,833 74,834 73,833 73,832 72,833 71,832 71,831 70,830 71,829 70,830 69,829 68,829 67,830 66,829 66,827 66,829 68,831 67,832 66,832 65,831 64,831 64,834 65,835 64,836 62,836 61,835 60,836 58,834 59,833 61,833 59,833 57,831 55,831 54,832 53,831 52,832 51,831 50,832 49,832 48,831 49,830 49,829 48,829 47,828 47,827 48,826 47,827 45,827" /><polygon fill="black" points="26,826" /><polygon fill="black" points="24,826" /><polygon fill="black" points="969,825" /><polygon fill="black" points="70,825" /><polygon fill="black" points="57,825" /><polygon fill="black" points="41,825 40,826" /><polygon fill="black" points="29,825" /><polygon fill="black" points="22,825" /><polygon fill="black" points="572,824" /><polygon fill="black" points="66,824 67,825 68,824 67,825" /><polygon fill="black" points="44,824" /><polygon fill="black" points="25,824" /><polygon fill="black" points="568,822" /><polygon fill="black" points="978,820" /><polygon fill="black" points="980,818" /><polygon fill="black" points="972,818" /><polygon fill="black" points="985,817" /><polygon fill="black" points="976,817 977,818" /><polygon fill="black" points="972,816" /><polygon fill="black" points="556,816" /><polygon fill="black" points="970,814" /><polygon fill="black" points="551,812" /><polygon fill="black" points="987,810 988,811" /><polygon fill="black" points="984,809 984,811 985,812 985,811 984,810 985,809" /><polygon fill="black" points="980,808 980,809 981,808" /><polygon fill="black" points="543,807" /><polygon fill="black" points="527,800" /><polygon fill="black" points="991,799 991,800" /><polygon fill="black" points="994,796" /><polygon fill="black" points="1001,794" /><polygon fill="black" points="518,792" /><polygon fill="black" points="1000,789 1000,790" /><polygon fill="black" points="994,788" /><polygon fill="black" points="1009,786" /><polygon fill="black" points="1000,785 1000,786 1001,785 1002,785" /><polygon fill="black" points="1000,780" /><polygon fill="black" points="498,780" /><polygon fill="black" points="502,778" /><polygon fill="black" points="1000,777 1000,778" /><polygon fill="black" points="496,777" /><polygon fill="black" points="994,772" /><polygon fill="black" points="490,768" /><polygon fill="black" points="487,768" /><polygon fill="black" points="992,765" /><polygon fill="black" points="1002,764" /><polygon fill="black" points="994,764" /><polygon fill="black" points="1000,762" /><polygon fill="black" points="480,762 481,762" /><polygon fill="black" points="992,761" /><polygon fill="black" points="476,761" /><polygon fill="black" points="1000,757 1000,759" /><polygon fill="black" points="994,756" /><polygon fill="black" points="466,756" /><polygon fill="black" points="1002,755" /><polygon fill="black" points="1001,751 1000,752 1000,754 1002,752" /><polygon fill="black" points="996,749" /><polygon fill="black" points="1008,745" /><polygon fill="black" points="1023,735 1024,735" /><polygon fill="black" points="1032,733" /><polygon fill="black" points="1038,732" /><polygon fill="black" points="1048,730" /><polygon fill="black" points="1041,729" /><polygon fill="black" points="421,721" /><polygon fill="black" points="421,719" /><polygon fill="black" points="419,717" /><polygon fill="black" points="406,708" /><polygon fill="black" points="402,708" /><polygon fill="black" points="94,702" /><polygon fill="black" points="64,701" /><polygon fill="black" points="40,701" /><polygon fill="black" points="47,700" /><polygon fill="black" points="26,700" /><polygon fill="black" points="98,698" /><polygon fill="black" points="52,698" /><polygon fill="black" points="81,697" /><polygon fill="black" points="60,697" /><polygon fill="black" points="33,697" /><polygon fill="black" points="29,697" /><polygon fill="black" points="22,697" /><polygon fill="black" points="17,697" /><polygon fill="black" points="86,696 86,697" /><polygon fill="black" points="101,695" /><polygon fill="black" points="35,695" /><polygon fill="black" points="33,695" /><polygon fill="black" points="30,695" /><polygon fill="black" points="20,695" /><polygon fill="black" points="99,694 98,695" /><polygon fill="black" points="58,694 59,694" /><polygon fill="black" points="51,694 51,695 52,696 51,695" /><polygon fill="black" points="5,694 5,695" /><polygon fill="black" points="3,694" /><polygon fill="black" points="113,693" /><polygon fill="black" points="118,692 119,693" /><polygon fill="black" points="14,692" /><polygon fill="black" points="1089,690" /><polygon fill="black" points="143,688" /><polygon fill="black" points="138,688 137,689" /><polygon fill="black" points="125,688" /><polygon fill="black" points="141,687 141,688" /><polygon fill="black" points="136,687" /><polygon fill="black" points="129,687" /><polygon fill="black" points="121,687 121,688 123,688 122,688" /><polygon fill="black" points="131,686" /><polygon fill="black" points="123,686" /><polygon fill="black" points="152,684" /><polygon fill="black" points="1084,683" /><polygon fill="black" points="353,681 354,682" /><polygon fill="black" points="156,681" /><polygon fill="black" points="176,677" /><polygon fill="black" points="167,677 167,678" /><polygon fill="black" points="183,676" /><polygon fill="black" points="188,675" /><polygon fill="black" points="190,674" /><polygon fill="black" points="206,673" /><polygon fill="black" points="192,673 193,673" /><polygon fill="black" points="204,672" /><polygon fill="black" points="203,670" /><polygon fill="black" points="201,669 200,670" /><polygon fill="black" points="199,668" /><polygon fill="black" points="196,668 197,668" /><polygon fill="black" points="194,668" /><polygon fill="black" points="228,666" /><polygon fill="black" points="1087,665 1088,665" /><polygon fill="black" points="215,664 214,665 215,666 214,665" /><polygon fill="black" points="222,663" /><polygon fill="black" points="227,662" /><polygon fill="black" points="215,662" /><polygon fill="black" points="230,661 231,661" /><polygon fill="black" points="233,660" /><polygon fill="black" points="324,659" /><polygon fill="black" points="1091,658" /><polygon fill="black" points="244,658" /><polygon fill="black" points="239,658" /><polygon fill="black" points="1094,656" /><polygon fill="black" points="1091,656 1092,656" /><polygon fill="black" points="321,656" /><polygon fill="black" points="318,654" /><polygon fill="black" points="243,654" /><polygon fill="black" points="253,653" /><polygon fill="black" points="249,653" /><polygon fill="black" points="314,652" /><polygon fill="black" points="309,651" /><polygon fill="black" points="307,651" /><polygon fill="black" points="307,649" /><polygon fill="black" points="297,648" /><polygon fill="black" points="275,648" /><polygon fill="black" points="267,648" /><polygon fill="black" points="278,646 280,646" /><polygon fill="black" points="275,646" /><polygon fill="black" points="267,646 268,646" /><polygon fill="black" points="271,645 272,645" /><polygon fill="black" points="1144,644" /><polygon fill="black" points="269,644" /><polygon fill="black" points="1161,641" /><polygon fill="black" points="1158,641" /><polygon fill="black" points="1227,631" /><polygon fill="black" points="1263,628" /><polygon fill="black" points="1311,627" /><polygon fill="black" points="1256,627" /><polygon fill="black" points="1332,626" /><polygon fill="black" points="1323,626" /><polygon fill="black" points="1253,626" /><polygon fill="black" points="1243,626" /><polygon fill="black" points="1398,625 1397,626" /><polygon fill="black" points="1381,625" /><polygon fill="black" points="1338,625" /><polygon fill="black" points="1326,625 1327,625" /><polygon fill="black" points="1306,625" /><polygon fill="black" points="1257,625" /><polygon fill="black" points="1467,624" /><polygon fill="black" points="1465,624" /><polygon fill="black" points="1403,624 1402,625" /><polygon fill="black" points="1393,624" /><polygon fill="black" points="1383,624" /><polygon fill="black" points="1376,624 1377,624" /><polygon fill="black" points="1370,624" /><polygon fill="black" points="1364,624 1365,625 1366,624 1365,625" /><polygon fill="black" points="1353,624 1354,624" /><polygon fill="black" points="1351,624 1351,625" /><polygon fill="black" points="1347,624 1348,625 1347,626 1348,625" /><polygon fill="black" points="1340,624" /><polygon fill="black" points="1334,624 1335,625 1335,624" /><polygon fill="black" points="1259,624" /><polygon fill="black" points="1388,623 1387,624" /><polygon fill="black" points="1373,623 1372,624 1373,625 1374,624" /><polygon fill="black" points="1368,623" /><polygon fill="black" points="1325,623" /><polygon fill="black" points="1307,623" /><polygon fill="black" points="1261,623 1262,624" /><polygon fill="black" points="1256,623 1257,623" /><polygon fill="black" points="1528,622" /><polygon fill="black" points="1475,622" /><polygon fill="black" points="1380,622" /><polygon fill="black" points="1362,622" /><polygon fill="black" points="1323,622 1322,623 1323,624 1322,623" /><polygon fill="black" points="1471,621" /><polygon fill="black" points="1440,621" /><polygon fill="black" points="1311,621" /><polygon fill="black" points="1417,620 1416,621 1416,622 1416,621" /><polygon fill="black" points="1298,620" /><polygon fill="black" points="1301,619" /><polygon fill="black" points="1284,619" /><polygon fill="black" points="1315,617 1315,618 1316,619 1315,618" /><polygon fill="black" points="1302,617" /><polygon fill="black" points="1279,616 1280,617" /><polygon fill="black" points="1281,615" /><polygon fill="black" points="1291,614" /><polygon fill="black" points="1532,436 1531,437" /><polygon fill="black" points="1519,436" /><polygon fill="black" points="1528,434" /><polygon fill="black" points="1516,432" /><polygon fill="black" points="1514,432" /><polygon fill="black" points="1504,426" /><polygon fill="black" points="1504,424" /><polygon fill="black" points="1498,422" /><polygon fill="black" points="1497,418" /><polygon fill="black" points="1486,417" /><polygon fill="black" points="1488,413" /><polygon fill="black" points="1479,413" /><polygon fill="black" points="1478,409 1479,409" /><polygon fill="black" points="1477,407" /><polygon fill="black" points="1479,403 1478,404" /><polygon fill="black" points="1475,402 1475,403 1474,404 1475,403" /><polygon fill="black" points="1479,401" /><polygon fill="black" points="1472,401" /><polygon fill="black" points="1478,399" /><polygon fill="black" points="1475,398 1474,399 1475,400 1476,400 1475,400 1474,399" /><polygon fill="black" points="1479,397" /><polygon fill="black" points="1474,396" /><polygon fill="black" points="1475,394" /><polygon fill="black" points="1478,393" /><polygon fill="black" points="1478,388 1479,389" /><polygon fill="black" points="1478,385 1478,386 1479,385" /><polygon fill="black" points="1478,374 1477,375" /><polygon fill="black" points="1491,361" /><polygon fill="black" points="1488,361 1489,362" /><polygon fill="black" points="1493,357" /><polygon fill="black" points="1490,357" /><polygon fill="black" points="1488,357 1488,359" /><polygon fill="black" points="1492,354 1491,355" /><polygon fill="black" points="1483,354" /><polygon fill="black" points="1497,352" /><polygon fill="black" points="1487,352 1485,354 1486,355 1485,354 1487,352 1488,353 1488,355 1491,352 1489,354" /><polygon fill="black" points="1497,348" /><polygon fill="black" points="1494,347" /><polygon fill="black" points="1494,345" /><polygon fill="black" points="1498,342 1498,343 1497,344 1498,343 1499,344 1498,343" /><polygon fill="black" points="191,325 192,325" /><polygon fill="black" points="946,324" /><polygon fill="black" points="188,323 189,323" /><polygon fill="black" points="1512,322" /><polygon fill="black" points="165,322" /><polygon fill="black" points="162,322" /><polygon fill="black" points="918,321" /><polygon fill="black" points="206,321" /><polygon fill="black" points="1505,320" /><polygon fill="black" points="902,320 902,321" /><polygon fill="black" points="165,320" /><polygon fill="black" points="904,319" /><polygon fill="black" points="989,317" /><polygon fill="black" points="145,317" /><polygon fill="black" points="141,317" /><polygon fill="black" points="1012,316" /><polygon fill="black" points="1010,316 1010,317" /><polygon fill="black" points="887,316" /><polygon fill="black" points="134,316 134,317 135,317" /><polygon fill="black" points="111,316" /><polygon fill="black" points="98,316" /><polygon fill="black" points="1508,315" /><polygon fill="black" points="1036,315" /><polygon fill="black" points="1513,314" /><polygon fill="black" points="1057,314" /><polygon fill="black" points="1033,314" /><polygon fill="black" points="99,314 100,315" /><polygon fill="black" points="334,313" /><polygon fill="black" points="38,313" /><polygon fill="black" points="36,313 35,314" /><polygon fill="black" points="32,313 33,313" /><polygon fill="black" points="1053,312" /><polygon fill="black" points="1,312" /><polygon fill="black" points="328,311" /><polygon fill="black" points="56,311" /><polygon fill="black" points="19,311" /><polygon fill="black" points="5,311" /><polygon fill="black" points="1507,310" /><polygon fill="black" points="1107,310" /><polygon fill="black" points="432,310 431,311" /><polygon fill="black" points="326,310" /><polygon fill="black" points="271,310" /><polygon fill="black" points="429,309 429,310" /><polygon fill="black" points="77,309" /><polygon fill="black" points="1513,308 1512,309" /><polygon fill="black" points="1106,308" /><polygon fill="black" points="434,308" /><polygon fill="black" points="282,308" /><polygon fill="black" points="66,308 65,309" /><polygon fill="black" points="1509,307" /><polygon fill="black" points="1504,307 1504,308 1505,307" /><polygon fill="black" points="850,307 851,307" /><polygon fill="black" points="292,307" /><polygon fill="black" points="290,307 290,308" /><polygon fill="black" points="285,307" /><polygon fill="black" points="1513,306" /><polygon fill="black" points="1526,305" /><polygon fill="black" points="1508,305 1507,306" /><polygon fill="black" points="862,305" /><polygon fill="black" points="1512,304" /><polygon fill="black" points="1514,303 1514,304" /><polygon fill="black" points="1512,302" /><polygon fill="black" points="1507,302" /><polygon fill="black" points="855,302" /><polygon fill="black" points="845,301" /><polygon fill="black" points="601,301" /><polygon fill="black" points="1508,300" /><polygon fill="black" points="834,300 833,301 834,301" /><polygon fill="black" points="831,300" /><polygon fill="black" points="623,300" /><polygon fill="black" points="589,300" /><polygon fill="black" points="1515,299" /><polygon fill="black" points="620,299" /><polygon fill="black" points="604,299 604,300" /><polygon fill="black" points="1512,298" /><polygon fill="black" points="831,298 832,298" /><polygon fill="black" points="1509,297 1509,298" /><polygon fill="black" points="837,297" /><polygon fill="black" points="828,297" /><polygon fill="black" points="1521,296 1521,297" /><polygon fill="black" points="1514,296" /><polygon fill="black" points="832,296" /><polygon fill="black" points="1512,295 1512,296" /><polygon fill="black" points="1528,294 1528,295" /><polygon fill="black" points="715,294" /><polygon fill="black" points="1513,293" /><polygon fill="black" points="845,293" /><polygon fill="black" points="829,293 829,294" /><polygon fill="black" points="729,293 730,294" /><polygon fill="black" points="725,293" /><polygon fill="black" points="707,293 708,294" /><polygon fill="black" points="703,293" /><polygon fill="black" points="687,293" /><polygon fill="black" points="1529,292" /><polygon fill="black" points="831,292" /><polygon fill="black" points="827,292 826,293" /><polygon fill="black" points="731,292" /><polygon fill="black" points="685,292" /><polygon fill="black" points="1522,291 1522,292" /><polygon fill="black" points="700,291 701,292 701,293 701,292" /><polygon fill="black" points="692,291" /><polygon fill="black" points="1533,290" /><polygon fill="black" points="857,290 856,291 859,291 859,290" /><polygon fill="black" points="840,290" /><polygon fill="black" points="719,290" /><polygon fill="black" points="649,290" /><polygon fill="black" points="646,290 645,291" /><polygon fill="black" points="1142,289 1142,290" /><polygon fill="black" points="721,289" /><polygon fill="black" points="713,289 713,290 714,291 714,292 712,294 713,294 713,293 714,292 715,292 716,291 714,291 713,290" /><polygon fill="black" points="710,289" /><polygon fill="black" points="694,289 694,290" /><polygon fill="black" points="574,289" /><polygon fill="black" points="1526,288 1526,289 1527,288 1528,289 1528,290 1530,288 1529,289 1528,289 1527,288" /><polygon fill="black" points="1516,288 1516,289 1517,290 1516,291 1517,290 1517,289" /><polygon fill="black" points="844,288" /><polygon fill="black" points="829,288 831,288" /><polygon fill="black" points="825,288" /><polygon fill="black" points="692,288" /><polygon fill="black" points="1523,287 1521,289 1520,288 1519,288 1520,289 1521,289 1522,288 1523,288" /><polygon fill="black" points="725,287 724,288" /><polygon fill="black" points="458,287 459,287" /><polygon fill="black" points="1520,286" /><polygon fill="black" points="1147,286" /><polygon fill="black" points="1527,285" /><polygon fill="black" points="840,285" /><polygon fill="black" points="826,285" /><polygon fill="black" points="821,285 822,286 823,286 822,285" /><polygon fill="black" points="744,285 743,286 744,285 745,285" /><polygon fill="black" points="735,285 736,286 737,285 736,286" /><polygon fill="black" points="729,285" /><polygon fill="black" points="645,285 644,286" /><polygon fill="black" points="1519,284 1520,284" /><polygon fill="black" points="725,284" /><polygon fill="black" points="721,284" /><polygon fill="black" points="1532,283" /><polygon fill="black" points="1156,283 1157,283" /><polygon fill="black" points="840,282" /><polygon fill="black" points="738,282" /><polygon fill="black" points="736,282" /><polygon fill="black" points="718,282" /><polygon fill="black" points="1208,281" /><polygon fill="black" points="726,281 725,282" /><polygon fill="black" points="1517,280 1516,281" /><polygon fill="black" points="1206,280 1206,281" /><polygon fill="black" points="1189,280 1189,281" /><polygon fill="black" points="1183,280" /><polygon fill="black" points="840,280" /><polygon fill="black" points="829,280" /><polygon fill="black" points="738,280 739,280 740,281 740,280" /><polygon fill="black" points="729,280" /><polygon fill="black" points="843,279 844,280 845,280 844,280" /><polygon fill="black" points="824,279 825,279" /><polygon fill="black" points="720,279 721,280" /><polygon fill="black" points="835,278" /><polygon fill="black" points="830,278 831,278" /><polygon fill="black" points="739,278" /><polygon fill="black" points="1535,277" /><polygon fill="black" points="1207,277" /><polygon fill="black" points="1199,277 1199,278" /><polygon fill="black" points="845,277" /><polygon fill="black" points="843,277" /><polygon fill="black" points="841,277" /><polygon fill="black" points="722,277 723,278" /><polygon fill="black" points="1210,276" /><polygon fill="black" points="831,276" /><polygon fill="black" points="737,276" /><polygon fill="black" points="1534,275" /><polygon fill="black" points="1210,274" /><polygon fill="black" points="842,274 843,275" /><polygon fill="black" points="733,274" /><polygon fill="black" points="723,274 723,275 724,275 725,276" /><polygon fill="black" points="1213,273" /><polygon fill="black" points="713,273" /><polygon fill="black" points="1533,272 1533,273 1534,273" /><polygon fill="black" points="1217,272" /><polygon fill="black" points="846,272 847,272" /><polygon fill="black" points="729,272 729,273" /><polygon fill="black" points="723,272" /><polygon fill="black" points="720,271 721,272 721,273 721,271" /><polygon fill="black" points="732,270" /><polygon fill="black" points="851,269" /><polygon fill="black" points="725,269 726,270 725,271 726,270 727,271 727,272 726,273 726,274 726,273 727,272 727,271" /><polygon fill="black" points="1222,268" /><polygon fill="black" points="732,268" /><polygon fill="black" points="713,268" /><polygon fill="black" points="866,267" /><polygon fill="black" points="863,267" /><polygon fill="black" points="474,266 474,267 475,267 475,266" /><polygon fill="black" points="864,265" /><polygon fill="black" points="862,265" /><polygon fill="black" points="856,265 857,266 858,266 857,266" /><polygon fill="black" points="854,265" /><polygon fill="black" points="694,265" /><polygon fill="black" points="1222,264" /><polygon fill="black" points="859,264" /><polygon fill="black" points="1227,262" /><polygon fill="black" points="865,261" /><polygon fill="black" points="859,261 859,262" /><polygon fill="black" points="856,261 855,262 854,262 853,263 854,262 855,262 856,261 857,261" /><polygon fill="black" points="851,261" /><polygon fill="black" points="711,261 713,263 713,264 712,265 711,264 710,265 711,264 712,265 713,264 713,263" /><polygon fill="black" points="1228,260" /><polygon fill="black" points="579,260 579,263 580,263 581,262 581,260" /><polygon fill="black" points="706,259" /><polygon fill="black" points="1230,257" /><polygon fill="black" points="710,257" /><polygon fill="black" points="870,256 871,256" /><polygon fill="black" points="707,256" /><polygon fill="black" points="702,256 702,257 701,258 700,257 701,258 702,257" /><polygon fill="black" points="700,255" /><polygon fill="black" points="867,254 865,256 864,255 866,257 867,256 866,255" /><polygon fill="black" points="1535,253" /><polygon fill="black" points="707,253 707,254" /><polygon fill="black" points="1249,252" /><polygon fill="black" points="698,252" /><polygon fill="black" points="1249,250" /><polygon fill="black" points="1247,250" /><polygon fill="black" points="1243,249" /><polygon fill="black" points="1251,248" /><polygon fill="black" points="1249,248" /><polygon fill="black" points="876,248" /><polygon fill="black" points="695,248 694,249" /><polygon fill="black" points="698,246 699,247 699,248 700,247 701,248 703,248 704,249 705,248 705,247 705,248 704,249 703,248 702,248 701,247 699,247" /><polygon fill="black" points="873,244" /><polygon fill="black" points="695,244 694,245 695,246" /><polygon fill="black" points="1257,243" /><polygon fill="black" points="876,243" /><polygon fill="black" points="1253,242" /><polygon fill="black" points="874,242" /><polygon fill="black" points="693,242" /><polygon fill="black" points="876,240" /><polygon fill="black" points="881,239 880,240 880,241 881,241" /><polygon fill="black" points="539,239 540,239" /><polygon fill="black" points="1520,238" /><polygon fill="black" points="878,238 879,238" /><polygon fill="black" points="695,238" /><polygon fill="black" points="692,238 692,239 693,240 692,239" /><polygon fill="black" points="1534,237" /><polygon fill="black" points="1264,237" /><polygon fill="black" points="882,236 881,237" /><polygon fill="black" points="878,236" /><polygon fill="black" points="1271,235 1270,236" /><polygon fill="black" points="884,235" /><polygon fill="black" points="692,235 692,236" /><polygon fill="black" points="690,234" /><polygon fill="black" points="1276,233" /><polygon fill="black" points="1534,232" /><polygon fill="black" points="892,232" /><polygon fill="black" points="1285,231" /><polygon fill="black" points="1523,230" /><polygon fill="black" points="1528,228 1529,229 1529,228" /><polygon fill="black" points="1295,228" /><polygon fill="black" points="677,228" /><polygon fill="black" points="1532,227" /><polygon fill="black" points="1524,227" /><polygon fill="black" points="1522,227 1522,228 1521,229 1522,228" /><polygon fill="black" points="684,227" /><polygon fill="black" points="1528,226 1529,226" /><polygon fill="black" points="1514,226" /><polygon fill="black" points="904,226 904,227" /><polygon fill="black" points="1533,225 1534,225" /><polygon fill="black" points="1512,225 1512,226" /><polygon fill="black" points="1302,225" /><polygon fill="black" points="675,225 676,226" /><polygon fill="black" points="1529,224" /><polygon fill="black" points="1527,224 1526,225" /><polygon fill="black" points="1515,224 1517,226 1516,227 1516,228 1517,229 1516,228 1516,227 1517,226 1518,226 1519,227 1520,226 1519,225 1518,226 1517,226" /><polygon fill="black" points="1309,224" /><polygon fill="black" points="1297,224" /><polygon fill="black" points="911,224" /><polygon fill="black" points="905,224" /><polygon fill="black" points="1528,222" /><polygon fill="black" points="1514,222 1513,223" /><polygon fill="black" points="1328,222" /><polygon fill="black" points="684,222 685,223 684,224 685,223 686,224 686,222 685,223" /><polygon fill="black" points="678,222 679,223 678,224 679,223" /><polygon fill="black" points="1321,221" /><polygon fill="black" points="904,221" /><polygon fill="black" points="902,221" /><polygon fill="black" points="1500,220 1501,220" /><polygon fill="black" points="899,220" /><polygon fill="black" points="669,220" /><polygon fill="black" points="1513,218" /><polygon fill="black" points="1351,218" /><polygon fill="black" points="1347,218 1347,219" /><polygon fill="black" points="1337,218" /><polygon fill="black" points="904,218" /><polygon fill="black" points="1511,217" /><polygon fill="black" points="1360,217" /><polygon fill="black" points="671,217 672,218" /><polygon fill="black" points="1514,216" /><polygon fill="black" points="1497,216 1498,216" /><polygon fill="black" points="1377,216" /><polygon fill="black" points="1351,216" /><polygon fill="black" points="1348,216" /><polygon fill="black" points="1505,215 1504,216 1505,216" /><polygon fill="black" points="1501,215" /><polygon fill="black" points="1489,215" /><polygon fill="black" points="1477,215 1478,215 1479,216 1478,217 1477,217 1480,217 1481,216 1480,217 1478,215" /><polygon fill="black" points="669,215 668,216" /><polygon fill="black" points="1475,214" /><polygon fill="black" points="909,214" /><polygon fill="black" points="1479,213" /><polygon fill="black" points="1451,213" /><polygon fill="black" points="1375,213" /><polygon fill="black" points="1371,213 1371,214" /><polygon fill="black" points="901,213 901,214" /><polygon fill="black" points="1490,212" /><polygon fill="black" points="913,212" /><polygon fill="black" points="1485,211" /><polygon fill="black" points="1475,211" /><polygon fill="black" points="1437,211 1436,212" /><polygon fill="black" points="1419,211" /><polygon fill="black" points="1413,211" /><polygon fill="black" points="1409,211" /><polygon fill="black" points="1391,211" /><polygon fill="black" points="1492,210" /><polygon fill="black" points="1442,210" /><polygon fill="black" points="1433,210 1432,211" /><polygon fill="black" points="1401,210" /><polygon fill="black" points="1388,210 1388,211 1387,212 1385,212 1384,213 1385,212 1387,212 1389,210" /><polygon fill="black" points="1488,209 1489,209" /><polygon fill="black" points="1486,209" /><polygon fill="black" points="1462,209" /><polygon fill="black" points="1444,209 1445,209" /><polygon fill="black" points="1392,209" /><polygon fill="black" points="1384,209" /><polygon fill="black" points="663,209 664,210 665,210 664,210" /><polygon fill="black" points="1470,208" /><polygon fill="black" points="1415,208" /><polygon fill="black" points="665,207" /><polygon fill="black" points="663,207" /><polygon fill="black" points="912,206" /><polygon fill="black" points="919,204" /><polygon fill="black" points="914,204" /><polygon fill="black" points="657,201" /><polygon fill="black" points="649,201 648,202" /><polygon fill="black" points="659,200" /><polygon fill="black" points="649,199" /><polygon fill="black" points="920,197 919,198" /><polygon fill="black" points="917,197" /><polygon fill="black" points="922,189" /><polygon fill="black" points="927,188" /><polygon fill="black" points="930,180 930,181 931,182 930,181" /><polygon fill="black" points="636,180" /><polygon fill="black" points="621,178 621,179" /><polygon fill="black" points="630,177 630,178 631,179 631,177" /><polygon fill="black" points="935,175" /><polygon fill="black" points="636,175 635,176" /><polygon fill="black" points="628,175 627,176 628,175 629,175" /><polygon fill="black" points="624,173" /><polygon fill="black" points="940,168 940,169" /><polygon fill="black" points="602,164" /><polygon fill="black" points="953,160" /><polygon fill="black" points="944,160" /><polygon fill="black" points="612,159" /><polygon fill="black" points="609,159" /><polygon fill="black" points="607,159 607,160 606,161 607,160" /><polygon fill="black" points="952,157" /><polygon fill="black" points="599,157" /><polygon fill="black" points="946,156 947,156" /><polygon fill="black" points="958,153" /><polygon fill="black" points="952,153 953,154 954,153 953,154" /><polygon fill="black" points="950,151" /><polygon fill="black" points="583,145" /><polygon fill="black" points="961,144" /><polygon fill="black" points="590,143" /><polygon fill="black" points="583,141 583,142" /><polygon fill="black" points="962,140" /><polygon fill="black" points="575,136" /><polygon fill="black" points="579,135 580,136 579,137 579,138 579,137 580,136" /><polygon fill="black" points="963,134" /><polygon fill="black" points="962,132" /><polygon fill="black" points="571,129" /><polygon fill="black" points="966,128 966,129" /><polygon fill="black" points="569,128" /><polygon fill="black" points="969,121" /><polygon fill="black" points="566,121" /><polygon fill="black" points="969,119" /><polygon fill="black" points="972,114" /><polygon fill="black" points="971,111" /><polygon fill="black" points="562,111" /><polygon fill="black" points="973,108" /><polygon fill="black" points="560,108" /><polygon fill="black" points="558,108" /><polygon fill="black" points="976,105 975,106" /><polygon fill="black" points="561,105" /><polygon fill="black" points="559,104" /><polygon fill="black" points="977,103 978,104" /><polygon fill="black" points="974,103" /><polygon fill="black" points="976,101" /><polygon fill="black" points="551,100 550,101" /><polygon fill="black" points="548,97" /><polygon fill="black" points="977,96 976,97 976,98 978,96" /><polygon fill="black" points="556,96 556,97 555,98 555,99 555,98 556,97" /><polygon fill="black" points="551,96 551,97" /><polygon fill="black" points="551,92" /><polygon fill="black" points="979,91" /><polygon fill="black" points="977,90" /><polygon fill="black" points="982,89" /><polygon fill="black" points="550,89 549,90 550,90 551,89" /><polygon fill="black" points="548,87" /><polygon fill="black" points="547,85" /><polygon fill="black" points="981,83 981,84 982,83" /><polygon fill="black" points="545,81" /><polygon fill="black" points="984,79 984,81 985,81 984,80" /><polygon fill="black" points="548,79" /><polygon fill="black" points="545,78" /><polygon fill="black" points="543,76" /><polygon fill="black" points="543,68" /><polygon fill="black" points="542,65" /><polygon fill="black" points="987,63" /><polygon fill="black" points="541,58" /><polygon fill="black" points="988,56 988,57 987,58 988,57" /><polygon fill="black" points="540,52" /><polygon fill="black" points="541,50" /><polygon fill="black" points="540,47" /><polygon fill="black" points="541,42" /><polygon fill="black" points="992,41" /><polygon fill="black" points="989,38" /><polygon fill="black" points="990,35" /><polygon fill="black" points="541,34" /><polygon fill="black" points="540,31" /><polygon fill="black" points="990,23" /><polygon fill="black" points="990,7" /><polygon fill="black" points="544,6" /><polygon fill="black" points="989,5" /><polygon fill="black" points="546,0 544,2 546,4 547,4 548,5 548,6 547,7 546,6 546,7 545,8 545,10 546,10 547,11 546,12 547,12 548,13 548,15 547,16 546,15 546,14 545,14 544,13 546,15 545,16 544,16 545,17 545,19 544,20 543,19 543,20 544,21 544,23 543,24 544,23 545,24 545,26 543,28 544,29 544,30 545,31 544,32 543,32 544,33 544,34 543,35 544,34 545,34 546,35 544,37 543,37 545,39 544,40 543,40 544,41 544,42 543,43 543,44 544,43 545,44 545,47 544,48 543,48 544,48 545,49 542,52 543,52 544,53 544,54 545,55 544,56 543,56 544,56 545,57 542,60 544,58 545,58 546,59 546,61 545,62 546,62 547,61 548,62 548,63 547,64 545,64 546,65 546,68 547,69 548,68 549,69 549,70 548,71 547,71 548,72 548,73 547,74 545,72 545,70 545,72 546,73 545,74 546,73 547,74 547,75 548,76 548,75 549,74 550,74 551,75 550,76 550,78 551,79 551,80 549,82 548,81 549,82 548,83 549,82 551,84 551,85 550,86 550,87 551,86 553,88 552,87 555,84 556,85 557,85 558,86 557,87 558,88 557,89 559,91 558,92 557,92 555,90 554,90 555,90 557,92 557,93 558,92 559,93 559,90 560,89 563,89 564,90 563,91 561,91 562,92 562,93 561,94 562,95 561,96 559,96 558,95 559,96 558,97 559,96 560,97 560,98 559,99 560,100 559,101 558,101 560,101 564,105 562,107 562,108 563,107 565,109 566,108 568,110 567,111 566,111 567,112 565,114 566,113 567,113 568,114 567,115 568,116 567,117 568,118 567,119 568,119 569,120 569,121 568,122 569,123 572,123 573,124 573,125 575,125 576,126 575,127 573,127 574,128 573,129 573,130 572,131 572,132 574,130 575,131 575,133 575,131 574,130 576,128 577,128 578,129 577,130 577,131 577,130 578,129 579,130 579,132 581,134 582,134 583,135 583,136 581,138 582,139 583,139 584,138 583,137 583,132 584,131 585,132 586,132 587,131 589,133 589,134 588,135 587,134 586,135 586,136 586,135 587,134 588,135 588,137 587,138 589,138 590,139 589,140 588,140 589,140 590,139 591,140 592,139 593,140 593,141 592,142 593,143 593,144 592,145 593,144 593,143 594,142 595,143 595,145 594,146 595,146 596,147 596,148 595,149 594,148 595,149 595,150 596,151 595,152 596,152 597,151 598,152 598,153 599,154 598,155 599,155 599,154 598,153 599,152 599,151 598,150 599,149 602,149 603,150 603,151 602,152 601,151 602,152 602,153 604,155 603,156 603,157 603,156 605,154 606,155 606,156 605,157 605,158 605,157 606,156 607,157 607,155 606,154 607,153 608,153 610,155 609,156 610,156 611,157 612,156 614,158 614,159 615,160 613,162 614,163 613,164 614,163 616,163 617,164 616,165 615,165 616,165 617,166 617,168 619,168 620,167 621,168 621,169 620,170 619,170 620,171 620,172 619,173 620,172 621,172 620,171 621,170 623,170 624,169 625,170 625,171 626,172 625,171 625,170 626,169 628,171 628,172 629,172 630,173 631,173 632,174 633,174 634,173 633,173 632,174 631,173 631,172 632,171 633,171 634,170 636,172 636,173 637,172 638,172 639,173 638,174 638,175 639,176 637,178 638,178 639,177 640,178 641,178 642,179 641,180 639,180 639,181 641,183 640,184 641,185 642,184 644,186 644,188 646,186 647,187 648,187 649,188 648,189 647,189 649,189 650,190 649,191 648,191 647,192 646,191 644,193 645,192 646,193 647,193 648,194 649,194 649,191 650,190 651,190 652,191 651,192 652,193 652,196 653,196 654,197 654,198 656,198 657,197 658,198 659,198 660,197 661,197 662,198 662,199 663,200 661,202 660,202 661,202 662,203 661,204 660,204 660,205 662,203 662,202 663,201 664,202 664,203 665,204 664,205 663,205 664,205 665,204 666,205 667,205 669,207 667,209 667,210 668,210 669,211 667,213 668,212 669,213 668,212 669,211 670,211 671,210 673,212 673,213 672,214 671,213 671,214 674,217 673,216 675,214 676,215 676,218 677,219 676,220 676,221 679,218 679,216 680,215 681,215 683,213 685,215 684,216 683,216 684,216 685,217 684,218 681,218 683,218 685,220 687,218 689,220 688,221 688,225 689,225 690,226 689,227 688,227 689,227 690,228 690,229 689,230 689,231 688,232 689,231 691,231 694,234 694,233 695,232 696,233 696,235 695,236 697,234 699,236 701,236 703,238 702,239 701,239 700,238 698,240 696,240 695,241 696,242 698,242 700,240 701,240 703,242 701,244 700,244 702,244 703,245 702,244 702,243 703,242 702,241 703,240 702,239 703,238 704,238 703,237 703,236 702,235 703,234 703,232 704,231 707,234 706,235 706,238 707,239 705,241 706,240 707,241 708,240 709,241 709,242 708,243 706,243 706,244 705,245 706,244 708,246 708,247 707,248 708,247 709,247 710,246 711,246 712,247 709,250 711,248 713,250 713,251 712,252 712,253 711,254 713,256 713,259 714,258 715,259 716,259 717,258 718,259 720,259 721,260 720,261 720,264 719,265 718,265 717,264 717,263 718,262 718,261 718,262 716,264 715,264 715,265 716,265 717,266 718,266 720,268 720,269 721,268 722,268 723,269 723,270 723,269 722,268 723,267 726,267 727,268 727,267 726,266 727,265 727,264 728,263 729,264 731,262 730,261 729,261 730,261 731,262 730,263 728,263 727,262 727,258 728,257 729,257 730,258 730,259 731,258 732,259 734,259 735,260 735,261 734,262 733,261 734,262 730,266 730,267 732,265 733,266 733,265 732,264 733,263 734,263 735,264 735,266 737,268 736,269 735,269 734,270 735,269 736,270 737,269 738,269 739,268 740,268 741,269 738,272 739,273 738,274 737,274 738,274 739,275 740,274 741,274 740,273 740,272 739,271 741,269 742,270 743,270 744,271 743,272 742,272 743,273 743,274 745,276 743,278 742,277 741,277 741,278 742,279 742,280 743,281 742,282 743,283 742,282 743,281 743,280 744,279 745,280 745,281 747,283 747,284 748,284 749,285 748,286 749,287 748,288 745,288 745,289 744,290 743,289 743,288 742,289 743,290 742,291 741,291 740,292 738,290 739,289 740,289 740,288 739,287 740,286 739,286 739,287 740,288 738,290 737,290 736,289 737,288 736,289 737,290 738,290 739,291 736,294 735,293 735,294 737,296 736,297 735,297 734,298 732,296 733,295 732,296 731,296 732,297 732,298 734,298 735,299 735,300 734,301 733,300 731,300 729,298 729,296 727,294 728,295 727,296 726,296 725,295 724,296 723,296 722,297 721,296 721,294 723,292 723,291 724,290 726,290 726,289 727,288 725,290 724,290 723,291 722,291 720,293 721,294 720,295 719,295 718,294 720,296 720,298 719,299 718,298 718,297 717,296 717,297 716,298 715,297 715,296 713,296 712,297 711,296 709,296 709,297 708,298 707,297 707,296 706,297 705,296 705,295 704,296 702,296 701,295 700,295 699,294 698,294 697,295 695,295 694,294 695,293 693,295 692,294 692,293 691,294 690,293 690,291 690,292 689,293 690,293 691,294 690,295 689,295 689,296 690,295 691,296 691,297 690,298 687,298 686,297 687,296 686,295 685,295 684,296 682,296 681,295 682,294 683,294 682,294 681,293 680,294 679,293 678,294 677,293 677,292 676,292 675,293 674,292 673,293 674,292 675,293 677,293 678,294 677,295 672,295 671,294 671,293 670,293 669,292 669,290 669,292 668,293 667,293 666,292 667,291 666,292 665,292 664,291 665,290 664,291 665,292 663,294 662,294 661,293 661,292 662,291 661,290 661,291 660,292 659,291 658,291 658,292 657,293 655,293 653,291 654,292 653,293 653,294 652,295 651,294 650,294 649,293 649,292 648,293 647,293 645,295 644,295 643,294 643,293 642,292 640,294 641,295 640,296 639,296 638,295 639,296 637,298 635,298 634,299 632,297 633,296 634,296 633,296 631,298 630,297 629,298 630,299 630,300 629,301 628,300 625,300 628,300 629,301 627,303 626,303 625,302 624,302 623,303 621,301 620,302 619,301 616,301 616,303 615,304 614,303 613,304 612,303 609,303 609,304 608,305 607,304 607,303 606,303 605,302 604,303 603,303 602,304 601,303 600,304 599,303 599,301 597,301 596,302 595,302 594,303 593,302 592,302 591,303 588,303 587,302 586,303 585,303 584,302 584,301 585,300 584,301 583,300 583,296 583,297 582,298 581,297 579,297 578,296 578,295 577,295 573,291 572,291 571,290 571,289 570,289 569,288 570,287 569,287 568,286 569,287 569,288 568,289 567,288 566,288 565,289 563,287 562,287 561,286 562,285 562,283 561,283 560,282 559,283 558,283 557,282 558,281 557,281 555,279 554,279 553,278 552,278 551,277 550,277 547,274 546,274 545,273 545,272 543,274 541,274 540,273 540,272 535,272 534,271 532,271 531,270 530,271 529,270 528,270 527,269 527,267 520,267 518,269 517,268 513,268 512,269 511,268 511,267 506,267 505,268 504,267 504,268 503,269 500,269 499,270 498,270 497,271 496,271 495,272 492,272 491,273 489,273 488,274 486,274 486,275 485,276 484,276 483,275 484,274 483,275 483,277 482,278 481,278 480,277 481,278 480,279 479,279 478,280 476,280 475,281 474,280 473,281 473,282 472,283 473,284 471,286 470,286 469,285 470,286 468,288 467,287 467,288 466,289 465,288 465,289 464,290 463,289 463,288 461,288 461,289 460,290 460,291 459,292 457,290 458,291 458,292 457,293 456,293 456,295 455,296 453,296 450,299 450,300 449,301 448,301 447,300 446,300 447,301 447,303 446,304 445,303 443,303 443,304 442,305 441,304 441,305 440,306 439,306 438,305 436,307 437,306 439,306 440,307 439,308 438,308 436,310 435,310 432,313 428,313 427,312 427,314 426,315 424,315 423,314 424,313 425,313 425,312 424,313 423,313 423,314 424,315 423,316 422,316 423,317 422,318 421,318 421,319 420,320 417,320 416,319 416,318 413,318 412,319 411,318 410,319 409,318 407,320 406,319 406,320 405,321 404,320 403,320 402,321 401,320 396,320 395,321 394,320 391,320 390,321 388,321 387,320 386,321 384,321 383,320 383,321 384,322 383,323 382,323 380,321 380,320 380,321 379,322 378,322 377,321 378,320 377,320 376,319 376,320 374,322 372,320 370,322 369,321 369,320 368,319 369,320 368,321 365,321 364,320 363,320 362,321 361,320 361,319 361,320 360,321 359,320 357,322 356,321 356,320 357,319 356,320 351,320 350,319 349,319 347,317 346,318 345,317 344,318 343,317 343,316 342,317 341,316 341,315 340,315 339,314 336,317 334,315 332,315 331,314 331,313 332,312 330,314 329,313 327,313 326,312 324,314 323,313 323,311 321,311 320,310 318,310 317,309 316,310 315,310 314,309 315,308 313,310 312,309 311,309 309,307 310,308 309,309 307,309 306,308 306,307 305,308 304,307 304,306 304,309 303,310 301,310 300,311 299,310 299,309 298,308 297,309 296,309 295,310 294,309 293,309 293,310 292,311 291,310 290,310 289,311 287,309 287,308 287,309 286,310 285,309 284,309 283,310 281,310 280,309 280,311 279,312 278,312 277,311 276,312 275,312 274,311 272,313 270,313 268,311 266,313 265,312 264,313 264,314 263,315 262,314 262,316 261,317 260,317 259,316 257,316 257,317 256,318 255,317 255,316 255,317 254,318 253,317 253,316 251,318 250,318 249,319 248,318 248,319 247,320 246,319 246,320 245,321 244,320 243,320 242,321 239,318 240,319 239,320 238,320 237,321 236,320 234,320 233,321 229,321 227,323 226,323 225,322 226,321 225,322 226,323 225,324 224,324 223,325 222,324 221,325 220,324 220,325 219,326 218,325 218,324 217,325 216,325 215,324 215,327 214,328 212,326 213,325 210,328 206,324 204,324 206,324 207,325 206,326 206,327 205,328 203,326 200,326 200,329 199,330 198,329 198,327 196,327 195,326 196,327 194,329 193,328 193,327 192,328 191,327 190,328 189,327 189,326 189,327 188,328 187,327 187,325 186,324 187,325 187,326 186,327 185,327 183,325 183,323 183,325 182,326 181,325 181,323 180,322 178,324 176,322 176,323 175,324 175,325 176,326 175,327 172,327 171,326 172,325 173,325 173,324 172,323 173,322 172,321 173,322 172,323 172,325 171,326 170,326 169,325 170,324 170,323 169,323 168,322 169,321 168,321 168,324 167,325 166,324 165,324 164,325 163,324 162,324 161,325 160,325 159,324 159,323 158,322 159,321 159,320 159,321 158,322 157,322 156,321 155,321 155,322 154,323 153,322 153,318 150,321 149,320 149,322 148,323 147,322 147,321 146,320 144,320 143,319 142,319 142,320 141,321 140,320 137,320 136,319 135,320 134,319 133,320 132,320 131,319 131,317 130,317 129,318 128,317 128,320 127,321 126,321 125,320 126,319 125,320 122,320 121,319 122,318 120,320 119,320 118,319 117,319 116,318 117,317 118,317 118,316 115,319 113,319 112,318 111,319 109,317 106,320 103,317 103,316 103,317 102,318 101,317 99,319 98,319 97,318 96,318 95,317 94,317 93,316 94,315 94,314 94,315 93,316 92,315 92,313 91,312 92,313 91,314 89,314 88,315 89,316 89,317 88,318 86,318 85,317 85,316 85,317 84,318 83,317 83,316 79,316 78,315 79,314 80,314 80,313 79,314 78,313 78,312 79,311 78,312 77,311 76,312 75,311 75,310 73,312 72,312 71,311 72,310 71,311 70,311 70,312 69,313 68,312 68,310 68,311 67,312 67,313 68,314 67,315 66,315 65,314 65,312 64,313 64,314 63,315 58,315 57,314 57,313 58,312 59,312 60,313 59,312 58,312 57,313 55,313 54,314 53,313 52,313 51,312 50,313 49,313 48,312 48,310 47,311 47,312 46,313 43,313 42,314 41,314 40,313 40,312 41,311 42,311 40,311 40,314 38,316 37,315 36,316 34,316 33,317 32,317 29,314 30,313 29,312 30,311 28,313 26,313 25,312 24,313 22,313 21,314 18,314 17,313 16,313 15,314 15,315 14,316 13,315 12,315 11,314 12,313 11,314 12,315 11,316 10,316 9,315 9,313 9,315 8,316 7,315 7,314 6,314 5,313 4,313 3,312 3,311 3,312 4,313 3,314 1,314 0,315 0,687 1,688 0,689 1,690 1,691 2,692 3,691 5,691 6,692 7,692 6,691 8,689 9,689 10,690 9,691 10,692 10,693 10,692 9,691 10,690 11,690 12,691 11,690 12,689 15,689 17,691 17,693 18,694 17,695 20,692 21,693 22,692 23,693 23,694 22,695 25,692 26,692 27,693 26,694 26,695 25,696 24,696 25,697 25,696 27,694 28,695 27,694 29,692 30,693 32,693 33,692 35,692 32,692 31,691 32,690 35,690 36,689 37,690 37,691 38,692 37,693 38,692 39,692 40,693 40,694 39,695 40,695 41,696 41,698 41,696 42,695 43,696 44,696 45,695 44,694 46,692 47,693 47,696 45,698 44,698 45,698 46,697 47,698 48,698 48,697 47,696 48,695 49,695 48,694 50,692 52,692 55,695 55,696 56,695 57,696 58,696 57,696 56,695 56,693 57,692 59,692 60,691 62,693 63,692 64,693 64,694 63,695 64,695 65,696 64,697 65,698 65,699 65,698 64,697 65,696 66,696 67,697 68,696 69,697 71,697 72,696 73,697 74,696 75,697 77,695 78,696 79,696 78,695 79,694 79,693 78,692 80,690 82,692 82,691 83,690 84,690 85,691 84,690 85,689 86,689 87,688 88,689 88,697 89,698 90,697 92,699 91,698 93,696 93,695 95,693 96,694 96,695 95,696 96,695 96,694 95,693 95,691 96,690 97,691 97,692 99,692 101,690 102,690 103,691 102,692 103,692 103,690 104,689 105,689 106,690 105,691 106,690 106,689 107,688 108,689 110,689 111,688 112,689 112,690 113,690 114,689 116,689 117,690 116,691 117,690 119,690 118,690 117,689 118,688 118,687 121,684 123,684 122,684 121,683 122,682 125,682 128,685 128,684 127,683 126,683 125,682 126,681 128,681 129,682 130,682 131,681 132,681 133,682 134,682 135,683 135,685 138,685 139,684 142,684 141,683 141,682 142,681 143,682 144,682 146,684 149,681 148,681 148,682 147,683 146,682 146,680 147,679 147,678 146,677 146,676 147,675 149,677 149,678 152,681 153,681 152,681 151,680 152,679 152,678 153,677 155,679 155,678 154,677 155,676 156,676 158,678 159,677 160,678 162,676 163,677 163,679 163,678 166,675 168,675 169,676 170,676 169,675 169,674 170,673 172,675 172,676 173,677 173,676 172,675 173,674 174,674 175,673 176,673 177,674 177,675 178,674 179,674 180,675 180,673 181,672 182,672 183,673 182,674 183,673 186,673 187,672 187,669 188,668 189,669 189,670 190,671 189,670 189,667 190,666 191,667 191,668 194,665 195,665 196,666 196,665 197,664 199,666 200,665 201,666 202,665 204,665 205,664 206,665 206,666 205,667 203,667 205,667 206,666 207,666 205,664 206,663 208,663 209,664 210,664 211,663 211,662 211,663 210,664 208,662 208,661 209,660 213,660 212,659 213,658 216,658 217,659 216,660 215,660 216,660 218,662 219,662 218,661 217,661 216,660 217,659 219,659 220,660 221,660 222,661 223,660 224,661 225,661 224,660 225,659 225,658 226,657 227,658 227,659 228,659 229,658 231,658 231,657 232,656 233,656 234,657 233,658 234,657 235,657 236,658 236,656 235,655 237,653 236,653 235,652 237,650 239,652 239,654 239,649 240,648 241,649 241,650 242,650 240,648 241,647 244,647 245,646 246,647 247,647 248,648 247,649 247,650 248,649 249,649 251,651 252,650 252,649 251,648 251,647 252,646 253,647 254,647 255,648 254,647 254,646 255,645 257,647 259,645 259,644 260,643 262,643 263,644 263,643 264,642 265,642 266,643 266,644 265,645 266,644 267,644 266,643 267,642 270,642 271,643 272,643 272,642 273,641 274,641 275,642 274,643 274,644 274,643 275,642 276,643 277,642 278,642 279,643 280,642 283,645 283,644 284,643 286,643 287,644 287,643 288,642 289,642 290,643 291,642 292,643 294,643 295,644 296,643 297,644 297,645 296,646 295,646 294,647 295,646 298,646 299,647 300,647 301,646 302,647 303,647 304,646 305,647 305,648 306,647 308,647 309,648 309,649 310,648 312,650 315,650 316,649 317,649 318,650 319,650 320,651 320,652 321,653 320,654 321,653 322,654 323,654 324,653 325,653 326,654 326,656 325,657 324,656 323,656 324,656 325,657 326,657 327,658 327,659 327,658 328,657 330,659 329,660 329,661 330,660 331,661 331,662 331,661 332,660 333,661 334,660 335,661 335,662 334,663 333,663 332,664 335,664 336,665 336,666 337,666 338,667 338,668 339,669 339,671 339,669 340,668 342,670 341,671 341,672 343,674 344,673 345,674 346,674 347,675 347,676 348,675 350,677 350,678 349,679 350,678 351,678 352,677 353,677 354,678 353,679 354,678 355,678 356,679 355,680 356,680 358,682 358,683 362,687 362,688 363,689 363,690 364,689 365,690 365,691 366,691 367,692 367,693 367,692 368,691 369,692 370,692 371,693 371,695 372,694 373,695 375,695 376,696 376,698 378,698 379,699 379,700 380,700 381,701 381,699 382,698 383,699 383,700 384,701 385,701 386,702 385,703 384,703 387,703 388,704 389,703 391,703 391,702 393,700 394,701 394,702 395,702 396,703 397,703 398,702 399,703 399,704 400,703 401,703 402,702 404,704 403,705 405,705 406,706 407,705 408,706 409,706 410,707 410,708 409,709 408,709 409,709 410,710 411,710 412,711 411,712 410,712 412,712 413,713 413,714 414,714 415,715 414,714 415,713 415,712 414,711 415,710 416,710 417,711 418,710 419,711 419,712 417,714 418,715 421,715 422,716 422,717 424,719 424,720 423,721 423,722 424,723 425,722 427,724 427,726 428,727 433,727 434,728 433,729 435,731 437,731 439,733 438,734 440,734 441,735 440,736 440,737 440,736 441,735 442,736 443,736 445,738 444,739 446,737 447,738 447,739 446,740 447,740 448,741 448,742 449,741 450,742 450,744 449,745 450,744 453,744 454,745 453,746 454,745 457,748 459,748 460,749 459,750 459,752 460,751 461,752 462,751 463,751 463,750 464,749 465,750 465,752 465,750 466,749 467,750 467,753 468,754 468,755 470,753 471,754 471,755 472,755 473,756 472,757 474,757 475,758 474,757 475,756 476,756 478,758 477,759 478,759 479,760 480,759 481,760 482,760 483,761 483,763 486,763 487,764 487,765 486,766 485,765 485,766 486,766 487,765 488,765 489,764 490,764 490,763 491,762 492,763 492,764 493,764 494,765 494,764 495,763 496,764 496,766 495,767 493,767 494,767 496,769 496,771 497,770 498,771 498,773 498,772 499,771 501,773 502,772 504,774 503,775 502,775 501,776 500,775 501,776 503,776 504,777 504,779 506,777 508,777 509,778 508,779 507,779 508,780 507,781 506,781 507,782 507,783 508,784 507,783 507,781 508,780 509,781 510,781 511,782 511,783 510,784 511,784 511,781 510,780 510,779 511,778 514,781 513,782 514,783 515,783 516,784 515,785 513,785 512,786 513,787 514,786 515,787 515,788 516,788 517,789 518,788 521,791 523,791 524,792 522,794 521,793 520,793 521,793 522,794 523,793 524,794 524,796 524,795 525,794 527,796 527,797 527,795 529,793 530,794 530,795 529,796 531,796 532,795 534,795 535,796 534,797 534,798 533,799 534,800 532,802 531,802 532,802 533,801 535,801 535,798 536,797 537,798 537,799 538,800 537,801 538,801 539,800 540,800 541,801 541,802 542,803 542,804 543,804 546,807 547,807 548,808 548,809 549,810 550,809 551,809 552,810 553,809 555,811 554,812 555,811 556,812 557,811 558,811 559,812 558,813 559,812 560,813 558,811 559,810 560,810 562,812 562,813 563,812 564,812 566,814 566,815 567,816 566,817 565,817 565,818 566,818 566,817 567,816 568,817 568,819 569,819 570,820 570,819 571,818 572,819 572,820 574,822 574,824 575,824 575,823 576,822 577,823 577,824 578,825 577,826 578,825 579,825 580,826 579,827 580,826 581,826 582,827 581,828 582,827 583,828 586,825 588,827 588,828 589,829 590,828 592,830 591,831 590,831 590,832 591,833 590,834 591,833 592,833 593,834 594,833 596,835 596,836 595,837 594,836 596,838 595,839 596,838 598,840 597,841 598,840 599,840 600,841 602,841 603,842 603,843 605,845 606,844 607,845 607,842 608,841 609,841 610,842 610,843 609,844 610,844 611,845 611,846 611,845 612,844 615,847 615,848 614,849 613,848 614,849 613,850 614,849 615,849 616,850 616,851 618,851 619,852 619,853 621,855 620,856 621,857 621,858 622,857 623,857 624,858 625,858 626,859 627,859 630,862 631,861 632,861 634,863 633,864 634,864 636,866 635,867 636,868 637,867 639,869 638,870 639,869 641,871 642,871 643,872 643,873 645,873 646,874 645,875 643,875 644,876 645,875 646,876 645,875 647,873 648,874 648,880 649,881 649,882 649,881 650,880 651,880 652,881 651,882 651,883 650,884 651,883 652,883 653,884 653,883 654,882 655,882 656,881 658,883 658,884 657,885 658,886 659,885 661,885 662,886 662,887 663,888 662,889 662,890 663,890 666,893 666,894 667,894 668,895 667,896 666,896 667,896 668,897 668,900 669,899 671,901 670,900 672,898 674,900 673,901 674,900 675,900 676,901 675,902 675,903 677,905 676,906 677,905 676,904 677,903 678,903 679,904 679,906 679,896 680,895 682,897 681,898 682,897 683,898 683,899 682,900 683,899 685,901 685,902 686,902 687,903 687,904 689,906 689,908 690,909 691,909 692,908 694,910 693,911 694,912 694,913 695,912 696,913 696,915 696,913 697,912 698,913 698,914 699,914 702,917 702,918 701,919 700,919 702,921 703,920 702,920 701,919 703,917 703,911 704,910 705,910 706,911 705,912 705,913 707,913 707,912 708,911 709,912 709,914 708,915 709,916 710,916 711,917 711,919 712,919 713,920 712,921 713,922 712,923 714,923 715,924 715,925 718,928 718,929 716,931 717,930 721,930 722,931 720,933 720,935 719,936 720,937 721,937 721,936 720,935 720,934 721,933 722,934 724,934 725,935 723,937 723,938 724,939 725,938 727,940 727,935 726,934 727,933 727,928 728,927 729,928 731,928 732,927 733,927 732,926 733,925 734,925 736,927 735,928 735,929 734,930 733,930 735,930 736,931 736,938 737,938 738,939 737,940 737,941 738,940 739,940 740,941 738,943 739,943 740,944 740,945 740,944 739,943 741,941 742,942 743,942 744,943 742,945 742,947 743,947 746,944 747,945 748,945 749,946 750,945 751,945 751,938 752,937 753,937 755,939 754,940 754,941 755,941 756,942 754,940 755,939 756,939 757,938 758,938 759,939 759,940 760,941 759,942 761,944 760,945 760,947 761,948 762,948 763,949 761,951 760,950 761,951 762,950 763,950 763,949 764,948 765,949 765,951 766,950 768,950 769,949 771,951 769,953 768,952 768,953 770,953 770,952 771,951 773,953 773,954 773,953 772,952 775,949 775,948 774,947 775,946 775,944 777,942 776,943 775,942 775,939 776,938 777,939 777,940 777,939 778,938 779,938 780,939 779,940 779,942 780,942 779,941 779,940 780,939 781,939 782,940 783,940 784,941 784,946 785,947 784,948 784,949 785,950 785,952 784,953 785,952 785,950 786,949 787,949 788,948 789,949 790,948 791,948 792,949 790,951 787,951 790,951 791,950 792,951 792,953 793,952 793,951 794,950 795,951 795,950 794,950 793,951 792,950 792,949 793,948 796,948 797,949 798,949 798,944 799,943 798,942 799,941 799,939 801,937 801,935 802,934 803,935 804,934 806,936 804,934 805,933 806,933 808,935 808,938 809,938 810,939 811,939 812,938 813,938 813,936 814,935 815,936 815,935 813,935 812,936 811,935 811,934 812,933 814,933 815,932 816,933 817,933 818,932 819,932 820,933 821,932 821,931 822,930 822,929 820,927 820,926 821,925 824,925 823,924 823,923 824,922 824,921 825,920 826,921 828,921 828,920 830,918 832,920 832,923 833,922 834,922 835,921 837,921 838,920 836,918 837,917 838,917 841,920 840,919 840,918 841,917 842,918 841,917 844,914 845,915 845,916 845,915 844,914 846,912 847,913 847,910 848,909 847,908 847,907 849,905 851,905 852,906 851,907 850,907 851,907 852,906 853,906 853,903 854,902 855,902 856,903 856,904 855,905 856,905 857,906 857,908 858,908 859,907 860,907 862,905 862,902 863,901 865,901 866,902 866,899 867,898 870,898 870,897 869,897 868,896 870,894 871,894 873,896 873,895 872,894 873,893 874,893 877,890 878,890 879,891 880,891 881,890 881,889 882,888 883,889 883,890 884,891 884,890 883,889 884,888 883,888 882,887 883,886 884,886 886,884 887,885 887,886 887,885 888,884 888,883 889,882 891,882 893,880 894,880 893,879 892,879 891,878 891,877 892,876 893,877 895,875 896,876 896,877 897,876 898,876 899,875 900,875 900,873 901,872 904,875 905,874 904,873 905,872 906,872 907,873 906,872 906,871 908,869 909,869 910,868 911,868 911,867 914,864 912,862 912,861 913,860 915,862 914,861 916,859 917,859 917,858 918,857 919,858 919,860 919,859 920,858 920,857 921,856 920,855 923,852 924,852 923,851 924,850 924,849 926,847 927,847 928,848 928,849 927,850 928,851 927,852 928,851 928,850 931,847 931,846 932,845 933,845 932,844 933,843 934,843 935,842 936,842 937,843 935,845 936,845 936,844 938,842 940,842 941,841 941,840 942,839 943,839 944,840 944,841 944,840 943,839 943,835 945,833 946,834 946,835 945,836 947,836 948,835 948,834 947,834 945,832 945,831 946,830 948,832 949,831 950,832 950,833 950,830 949,829 950,828 951,828 952,829 952,831 953,832 952,833 953,834 953,835 954,836 953,837 952,837 952,839 953,839 953,838 954,837 955,837 955,836 954,836 953,835 953,834 954,833 955,834 956,834 955,834 954,833 955,832 957,832 959,834 960,833 959,834 957,832 957,829 958,828 958,827 959,826 960,826 961,827 961,828 960,829 961,828 962,828 963,829 961,827 963,825 963,824 964,823 965,824 965,825 966,825 965,824 966,823 967,823 967,822 968,821 967,820 968,821 967,822 966,822 964,820 966,818 970,818 968,818 967,817 968,816 969,816 968,816 967,815 968,814 968,813 970,811 971,812 972,812 973,813 973,812 971,812 970,811 971,810 973,810 972,810 971,809 971,806 972,805 973,805 974,806 973,807 975,807 976,808 976,810 977,811 977,812 977,810 978,809 978,808 977,807 979,805 980,805 981,804 982,805 981,804 981,803 980,802 982,800 983,800 984,801 984,802 983,803 984,803 985,804 984,805 984,806 983,807 985,805 986,806 987,806 988,805 988,804 989,803 990,804 990,805 990,804 988,802 989,801 989,800 988,800 987,799 987,798 988,797 990,797 991,796 990,795 992,793 992,792 990,790 991,789 991,788 993,786 993,785 994,784 993,785 992,785 991,784 991,783 990,783 989,782 989,781 990,780 991,780 990,780 989,779 989,778 990,777 991,778 992,778 994,780 992,778 993,777 992,777 991,776 991,775 989,775 988,776 987,775 987,774 988,773 989,773 990,772 991,772 991,771 992,770 993,770 991,768 991,767 990,766 990,763 989,763 988,762 991,759 991,756 990,755 991,754 992,754 993,753 992,752 993,751 991,751 990,750 991,749 994,749 994,748 996,746 996,744 995,743 995,742 996,741 998,741 999,742 998,743 999,743 1000,744 1000,749 1001,748 1000,747 1001,746 1000,745 1003,742 1003,741 1004,740 1005,741 1005,743 1005,741 1007,739 1008,739 1009,740 1008,741 1008,742 1007,743 1008,743 1008,741 1009,740 1011,740 1012,739 1013,740 1012,739 1015,736 1016,737 1017,737 1019,735 1018,734 1019,733 1020,733 1021,732 1022,732 1023,733 1026,733 1027,732 1028,732 1028,731 1029,730 1030,731 1030,732 1030,731 1031,730 1032,731 1033,731 1034,732 1033,731 1034,730 1036,730 1037,729 1039,729 1038,729 1037,728 1038,727 1042,727 1043,726 1044,727 1044,728 1044,727 1045,726 1045,725 1047,723 1048,724 1048,727 1050,727 1052,725 1053,725 1054,724 1055,724 1054,723 1055,722 1055,721 1056,720 1057,721 1057,720 1058,719 1059,719 1060,720 1061,719 1062,719 1063,718 1064,719 1065,718 1065,717 1066,716 1067,716 1066,715 1067,714 1068,714 1069,715 1069,716 1070,717 1071,716 1070,715 1069,715 1068,714 1069,713 1068,712 1068,711 1069,710 1070,711 1071,710 1073,712 1073,709 1074,708 1075,709 1076,709 1077,708 1077,707 1079,705 1079,704 1078,703 1079,702 1079,701 1078,701 1077,700 1079,698 1080,699 1080,698 1081,697 1080,697 1079,696 1080,695 1081,695 1080,694 1081,693 1082,693 1083,692 1082,692 1081,691 1082,690 1083,690 1083,689 1082,689 1081,688 1080,688 1079,687 1080,686 1082,686 1081,685 1081,684 1082,683 1081,682 1082,681 1083,681 1082,681 1080,679 1080,678 1081,677 1081,676 1080,675 1082,673 1083,674 1081,672 1080,672 1079,671 1082,668 1085,668 1083,666 1083,664 1082,664 1081,663 1081,662 1082,661 1083,661 1084,660 1086,660 1087,659 1088,659 1089,658 1089,655 1088,654 1089,653 1090,653 1091,654 1092,653 1095,653 1096,654 1097,654 1097,652 1098,651 1099,651 1100,652 1100,653 1101,653 1102,652 1103,652 1102,651 1103,650 1105,650 1106,649 1107,650 1108,650 1109,649 1110,650 1111,649 1115,649 1116,650 1116,649 1118,647 1119,648 1120,647 1121,648 1122,648 1123,647 1124,648 1124,649 1126,647 1127,647 1128,646 1129,647 1128,646 1129,645 1130,645 1131,646 1131,645 1132,644 1133,645 1134,644 1135,644 1136,645 1137,644 1138,644 1139,645 1142,642 1145,642 1146,643 1146,644 1147,645 1147,644 1148,643 1149,643 1151,641 1151,640 1152,639 1153,640 1153,641 1153,640 1154,639 1165,639 1167,637 1168,638 1168,639 1168,638 1169,637 1170,638 1170,639 1171,638 1173,638 1174,637 1176,637 1177,636 1177,635 1178,634 1179,634 1180,635 1180,636 1181,635 1181,633 1182,632 1184,634 1184,636 1186,634 1187,635 1188,635 1189,634 1190,635 1191,634 1192,634 1194,636 1195,635 1197,635 1197,634 1198,633 1199,633 1200,634 1201,634 1202,633 1204,633 1205,634 1205,635 1205,634 1207,632 1209,634 1208,633 1209,632 1210,632 1211,633 1212,632 1213,633 1214,633 1216,631 1217,631 1218,630 1219,631 1223,631 1226,628 1228,628 1229,629 1230,628 1230,626 1231,625 1232,626 1232,627 1232,626 1233,625 1234,625 1235,626 1235,624 1236,623 1238,625 1238,626 1239,625 1240,626 1241,626 1240,626 1239,625 1239,624 1238,623 1239,622 1240,622 1241,623 1241,624 1242,624 1240,622 1241,621 1242,621 1243,622 1242,621 1242,620 1243,619 1245,621 1245,622 1245,621 1247,619 1248,620 1248,623 1249,624 1248,623 1248,622 1250,620 1251,621 1252,620 1253,621 1252,620 1253,619 1254,619 1256,621 1258,621 1257,620 1257,619 1258,618 1259,619 1261,619 1262,620 1261,621 1262,620 1263,620 1263,617 1264,616 1265,617 1265,615 1266,614 1268,616 1271,616 1271,615 1272,614 1273,615 1273,616 1275,616 1276,617 1277,616 1275,614 1276,613 1277,613 1278,614 1279,614 1280,613 1282,613 1283,614 1283,616 1284,616 1285,617 1286,617 1286,616 1287,615 1285,615 1284,614 1286,612 1287,613 1287,611 1286,610 1287,609 1288,609 1289,610 1291,610 1292,611 1291,612 1290,612 1292,612 1293,611 1293,610 1295,608 1297,610 1298,610 1299,611 1298,612 1297,612 1297,613 1298,612 1299,613 1299,615 1299,613 1300,612 1301,612 1302,613 1302,614 1301,615 1303,613 1305,615 1304,616 1305,617 1304,618 1304,620 1305,621 1304,622 1307,619 1308,619 1309,620 1309,621 1309,619 1310,618 1311,619 1311,618 1316,613 1318,613 1319,614 1318,615 1317,615 1318,615 1319,616 1318,617 1319,617 1320,618 1320,619 1321,620 1320,619 1321,618 1322,618 1323,619 1323,620 1325,620 1326,619 1327,619 1328,620 1328,621 1329,620 1330,621 1330,622 1329,623 1330,622 1331,622 1333,620 1334,621 1334,622 1335,622 1335,618 1336,617 1337,618 1337,617 1338,616 1340,616 1341,617 1341,618 1342,619 1342,620 1345,620 1346,621 1345,620 1346,619 1347,619 1348,620 1348,621 1348,620 1349,619 1350,619 1351,620 1351,621 1350,622 1351,622 1351,621 1352,620 1354,620 1355,621 1355,622 1355,621 1356,620 1358,622 1356,624 1356,625 1357,626 1357,623 1359,621 1359,620 1360,619 1361,619 1362,620 1363,620 1364,621 1366,621 1368,619 1370,621 1371,621 1372,620 1373,621 1374,620 1375,621 1374,620 1374,618 1375,617 1376,617 1377,618 1377,620 1379,620 1380,619 1381,619 1382,620 1382,622 1383,621 1383,620 1384,619 1385,620 1386,620 1387,621 1386,620 1386,619 1387,618 1390,621 1391,621 1392,622 1391,621 1390,621 1389,620 1389,619 1390,618 1391,619 1393,619 1395,621 1395,623 1395,621 1396,620 1398,622 1397,623 1398,623 1399,622 1400,622 1399,621 1399,619 1400,618 1401,619 1401,620 1402,620 1401,619 1402,618 1403,618 1405,620 1405,621 1405,620 1406,619 1407,619 1407,618 1408,617 1409,618 1409,619 1409,618 1410,617 1411,618 1411,619 1412,620 1413,619 1412,620 1411,619 1411,618 1412,617 1412,616 1413,615 1416,618 1415,619 1416,618 1419,618 1420,619 1424,619 1426,617 1427,618 1427,619 1428,619 1429,620 1430,619 1432,619 1434,617 1436,619 1437,619 1438,618 1438,617 1439,616 1440,616 1441,617 1440,618 1441,617 1443,619 1445,619 1446,618 1447,619 1449,619 1450,620 1451,619 1453,619 1454,618 1455,619 1457,619 1459,621 1461,619 1464,619 1465,620 1469,620 1469,619 1470,618 1471,619 1472,618 1474,620 1475,619 1477,619 1479,621 1479,619 1480,618 1481,619 1482,618 1483,618 1484,619 1485,618 1486,619 1486,618 1487,617 1488,618 1489,618 1490,619 1490,620 1491,619 1494,619 1495,620 1494,619 1495,618 1496,618 1497,619 1498,618 1499,618 1501,620 1502,620 1501,619 1503,617 1505,619 1504,620 1506,618 1507,618 1508,619 1509,619 1510,618 1512,618 1513,619 1514,619 1516,617 1517,618 1517,619 1518,619 1517,618 1518,617 1519,617 1520,618 1521,617 1522,617 1523,618 1522,619 1524,619 1525,618 1526,618 1527,619 1528,618 1529,619 1529,620 1530,620 1531,619 1532,620 1533,619 1534,620 1535,619 1535,443 1533,441 1535,439 1534,440 1532,440 1531,439 1531,440 1530,441 1528,439 1528,438 1526,436 1527,437 1525,439 1524,439 1523,438 1523,436 1527,432 1526,432 1525,433 1525,434 1524,435 1523,434 1522,435 1521,434 1521,433 1522,432 1521,433 1520,433 1520,434 1521,434 1522,435 1521,436 1521,437 1520,438 1517,438 1516,437 1516,436 1515,436 1514,437 1513,437 1512,436 1512,435 1513,434 1515,434 1512,434 1511,433 1511,432 1511,433 1510,434 1509,433 1509,432 1508,431 1508,430 1507,430 1508,431 1507,432 1506,432 1504,430 1506,428 1504,430 1505,431 1504,432 1503,432 1501,430 1500,431 1499,430 1499,429 1500,428 1502,428 1501,428 1500,427 1499,428 1498,428 1497,427 1498,426 1497,425 1498,424 1497,424 1497,426 1496,427 1495,426 1495,424 1494,423 1493,423 1492,424 1491,423 1491,422 1490,423 1489,422 1489,421 1492,418 1491,417 1492,418 1491,419 1490,419 1489,418 1489,417 1489,418 1490,419 1490,420 1489,421 1488,420 1487,420 1486,419 1487,420 1487,421 1488,421 1489,422 1487,424 1486,423 1485,423 1482,420 1482,419 1483,418 1484,419 1483,418 1482,419 1478,415 1477,415 1476,416 1475,415 1475,414 1474,415 1473,415 1472,414 1474,412 1475,412 1476,411 1477,412 1477,413 1477,412 1478,411 1476,411 1475,410 1474,410 1473,409 1472,409 1471,410 1469,408 1471,406 1472,406 1473,407 1474,407 1475,408 1474,407 1474,406 1473,407 1472,406 1470,406 1468,404 1469,403 1468,402 1469,401 1470,401 1470,400 1469,399 1471,397 1470,397 1469,396 1469,395 1468,394 1472,390 1473,391 1473,393 1472,394 1473,394 1473,392 1474,391 1475,392 1475,390 1474,390 1473,389 1474,388 1475,388 1476,387 1474,385 1475,384 1476,384 1477,383 1476,383 1475,382 1474,382 1473,381 1474,380 1476,380 1476,379 1477,378 1479,380 1479,381 1479,379 1478,379 1477,378 1478,377 1479,377 1478,377 1477,378 1475,376 1475,374 1477,372 1478,372 1478,370 1479,369 1478,370 1476,368 1477,367 1479,367 1478,366 1479,365 1479,362 1482,359 1481,359 1480,358 1481,357 1480,357 1479,356 1479,355 1480,354 1481,354 1481,352 1482,351 1483,352 1484,351 1482,349 1482,348 1483,347 1484,348 1485,348 1485,346 1486,345 1487,345 1488,346 1487,347 1488,347 1489,348 1488,349 1488,350 1488,349 1489,348 1490,348 1491,349 1490,350 1492,348 1492,346 1491,347 1490,346 1490,344 1491,343 1492,344 1494,342 1493,341 1494,340 1495,340 1496,341 1496,342 1496,341 1497,340 1498,340 1497,339 1497,338 1498,337 1500,339 1500,340 1501,340 1501,339 1500,339 1499,338 1500,337 1501,337 1500,337 1499,336 1498,336 1497,335 1498,334 1497,333 1498,332 1502,332 1501,331 1500,331 1499,330 1500,329 1501,329 1498,326 1497,326 1496,325 1497,324 1498,324 1499,323 1500,324 1502,324 1501,323 1501,322 1500,321 1500,320 1501,319 1502,319 1501,319 1500,320 1499,320 1498,319 1500,317 1501,317 1501,316 1502,315 1501,314 1501,311 1502,310 1503,311 1503,312 1504,313 1504,314 1504,313 1505,312 1506,312 1504,312 1501,309 1502,308 1502,306 1503,305 1505,305 1506,304 1505,303 1505,301 1504,302 1503,301 1503,299 1504,298 1505,299 1504,298 1506,296 1507,297 1507,298 1507,296 1508,295 1509,295 1509,294 1507,292 1508,291 1509,291 1510,292 1511,292 1510,292 1509,291 1511,289 1512,290 1514,290 1514,288 1513,288 1512,287 1513,286 1515,286 1514,286 1513,285 1512,286 1511,286 1510,285 1511,284 1510,284 1509,283 1510,282 1510,280 1511,279 1512,280 1512,282 1513,283 1515,283 1517,285 1514,282 1514,280 1516,278 1514,278 1513,277 1513,276 1514,275 1515,276 1516,276 1515,275 1515,274 1516,273 1517,273 1516,272 1517,271 1518,271 1519,272 1519,273 1520,273 1522,275 1522,276 1520,278 1519,277 1519,276 1518,276 1521,279 1520,280 1520,281 1522,283 1522,285 1523,285 1523,284 1524,283 1523,284 1521,282 1522,281 1523,281 1522,280 1525,277 1524,276 1524,274 1525,273 1526,274 1526,273 1527,272 1528,273 1528,276 1527,277 1528,278 1528,279 1527,280 1526,279 1527,280 1526,281 1528,279 1529,280 1529,281 1529,280 1530,279 1530,278 1531,277 1530,276 1531,275 1532,275 1530,275 1529,274 1531,272 1530,272 1528,270 1528,269 1529,268 1530,268 1531,269 1530,268 1530,267 1529,266 1529,265 1530,264 1532,266 1532,267 1533,266 1534,266 1533,266 1532,265 1532,264 1533,263 1534,264 1535,264 1535,263 1534,264 1533,263 1533,262 1534,261 1535,261 1535,260 1534,261 1533,260 1533,259 1532,259 1531,260 1530,260 1529,259 1531,257 1535,257 1535,256 1530,256 1528,254 1529,253 1530,253 1531,254 1533,254 1533,253 1532,252 1533,251 1533,250 1534,249 1534,248 1533,247 1533,246 1534,245 1535,245 1533,243 1534,242 1534,240 1535,239 1534,240 1532,238 1533,239 1533,240 1532,241 1531,240 1530,240 1528,238 1530,236 1528,238 1527,238 1525,240 1523,240 1522,239 1523,238 1521,240 1519,240 1518,239 1517,239 1515,241 1514,240 1514,239 1517,236 1519,236 1519,235 1520,234 1520,233 1521,232 1523,234 1523,235 1522,236 1521,236 1524,236 1525,237 1525,236 1523,234 1524,233 1529,233 1530,232 1531,233 1532,233 1533,234 1533,235 1533,234 1532,233 1532,232 1531,231 1531,229 1531,231 1530,232 1529,231 1528,231 1527,232 1526,231 1527,232 1526,233 1524,233 1523,232 1522,233 1521,232 1520,232 1520,234 1519,235 1518,235 1517,234 1518,233 1517,233 1516,232 1516,231 1516,235 1515,236 1514,236 1513,235 1514,234 1514,230 1513,231 1512,230 1512,229 1511,228 1509,228 1508,227 1508,226 1509,225 1510,226 1508,224 1506,224 1505,223 1504,224 1507,224 1508,225 1507,226 1504,226 1504,228 1503,229 1502,228 1502,226 1501,225 1500,225 1499,224 1497,224 1498,225 1497,226 1496,226 1495,225 1495,223 1496,222 1497,222 1496,222 1495,223 1494,222 1494,221 1496,219 1497,219 1498,218 1497,218 1496,219 1495,218 1495,216 1495,217 1494,218 1491,218 1490,217 1491,216 1492,216 1493,215 1492,216 1491,216 1489,218 1487,216 1487,215 1487,216 1486,217 1485,217 1484,216 1481,219 1480,219 1480,220 1479,221 1478,220 1478,219 1476,219 1474,217 1475,216 1474,217 1473,216 1473,215 1473,216 1472,217 1473,218 1473,219 1474,220 1472,222 1470,220 1471,219 1470,220 1469,219 1469,218 1470,217 1470,215 1471,214 1471,213 1470,214 1468,212 1468,211 1467,210 1467,209 1467,210 1466,211 1466,212 1465,213 1465,215 1464,216 1463,216 1462,215 1463,214 1463,212 1464,211 1464,209 1465,208 1464,209 1464,210 1462,212 1461,211 1460,211 1459,210 1458,211 1457,210 1457,211 1458,212 1458,215 1457,216 1455,214 1456,213 1453,216 1453,217 1452,218 1451,217 1451,216 1449,216 1448,217 1447,216 1446,216 1445,215 1446,216 1445,217 1444,217 1443,216 1442,216 1440,214 1440,213 1440,214 1439,215 1438,215 1436,217 1433,214 1433,216 1432,217 1430,215 1432,217 1431,218 1431,219 1430,220 1429,219 1429,217 1428,216 1425,216 1426,217 1425,218 1424,218 1423,217 1423,216 1422,217 1421,217 1420,216 1421,215 1421,214 1422,213 1423,213 1422,212 1422,213 1421,214 1421,215 1420,216 1419,215 1419,214 1418,215 1417,215 1416,214 1416,213 1416,214 1417,215 1416,216 1415,216 1415,217 1416,218 1415,219 1414,219 1412,217 1413,216 1413,215 1412,216 1410,214 1409,215 1408,215 1407,216 1407,217 1406,218 1405,217 1404,218 1403,217 1403,216 1401,216 1401,217 1400,218 1399,217 1399,211 1399,212 1398,213 1397,213 1396,212 1396,211 1395,212 1394,212 1393,213 1394,212 1395,213 1395,214 1394,215 1393,215 1392,216 1391,215 1390,215 1389,214 1390,213 1391,213 1390,213 1388,215 1387,214 1386,215 1384,215 1384,218 1383,219 1382,218 1382,216 1381,217 1380,216 1383,219 1381,221 1380,220 1380,219 1379,218 1380,219 1379,220 1377,220 1376,221 1375,220 1375,219 1374,219 1373,218 1375,216 1375,215 1374,216 1373,215 1372,216 1370,216 1369,215 1369,216 1370,216 1371,217 1370,218 1368,218 1367,219 1366,218 1366,217 1367,216 1366,217 1365,217 1364,218 1363,217 1363,218 1362,219 1361,219 1361,220 1360,221 1359,220 1359,219 1358,220 1357,219 1357,217 1357,218 1356,219 1356,220 1355,221 1353,219 1353,220 1354,221 1352,223 1351,222 1351,220 1350,221 1349,220 1349,219 1349,221 1348,222 1347,221 1346,221 1346,222 1345,223 1344,223 1343,222 1344,221 1343,220 1343,219 1342,219 1342,220 1340,222 1338,222 1337,223 1335,223 1334,224 1333,223 1332,224 1331,223 1330,224 1327,224 1326,223 1325,223 1324,224 1323,223 1322,224 1321,223 1320,224 1318,224 1317,223 1318,224 1317,225 1316,225 1315,226 1314,226 1313,225 1313,224 1311,224 1312,224 1313,225 1312,226 1312,227 1311,228 1310,227 1310,226 1308,226 1307,227 1306,226 1308,228 1306,230 1305,229 1305,228 1304,229 1303,229 1301,227 1300,227 1300,228 1299,229 1298,228 1297,228 1298,229 1296,231 1294,231 1293,230 1293,229 1292,228 1293,229 1293,230 1292,231 1291,231 1290,230 1289,231 1289,232 1288,233 1287,232 1286,233 1285,233 1285,234 1284,235 1283,235 1281,237 1280,236 1279,236 1278,237 1277,236 1277,235 1277,236 1279,238 1278,239 1276,239 1274,237 1274,238 1273,239 1273,241 1272,242 1271,241 1271,240 1270,239 1271,238 1270,239 1268,237 1270,239 1270,240 1269,241 1268,240 1269,241 1266,244 1265,243 1265,242 1266,241 1266,240 1266,241 1265,242 1264,241 1263,241 1264,242 1264,243 1263,244 1261,242 1261,241 1261,242 1260,243 1260,244 1261,245 1261,246 1260,247 1258,245 1259,246 1259,248 1258,249 1257,248 1257,247 1256,246 1256,247 1255,248 1254,247 1254,248 1253,249 1253,250 1252,251 1251,251 1252,251 1253,252 1253,255 1252,256 1251,256 1250,255 1251,254 1251,253 1251,254 1250,255 1249,254 1248,254 1247,255 1245,253 1246,252 1247,252 1246,252 1244,254 1243,253 1244,254 1242,256 1240,254 1241,253 1240,253 1240,254 1241,255 1241,257 1240,258 1239,257 1239,256 1238,256 1238,257 1237,258 1238,257 1239,257 1240,258 1239,259 1240,260 1239,261 1238,261 1237,262 1236,262 1235,261 1234,261 1235,262 1236,262 1237,263 1236,264 1235,264 1235,268 1234,269 1233,269 1231,267 1231,266 1232,265 1233,265 1233,264 1232,265 1231,264 1231,263 1230,262 1231,263 1231,264 1230,265 1229,265 1229,266 1228,267 1228,268 1227,269 1225,267 1225,266 1224,265 1225,264 1224,265 1225,266 1225,267 1226,268 1225,269 1226,269 1227,270 1226,271 1225,271 1223,273 1222,272 1222,271 1223,270 1222,270 1221,271 1219,271 1219,272 1220,273 1219,274 1217,274 1219,274 1220,275 1219,276 1218,276 1219,276 1220,277 1219,278 1219,279 1218,280 1215,277 1215,276 1214,277 1213,277 1215,277 1216,278 1215,279 1211,279 1211,280 1212,280 1213,281 1213,282 1212,283 1211,282 1210,282 1211,282 1212,283 1211,284 1209,284 1208,285 1207,284 1206,284 1205,283 1202,283 1201,282 1201,283 1200,284 1199,283 1199,281 1197,281 1196,280 1197,279 1196,280 1193,280 1189,284 1189,285 1188,286 1187,285 1186,285 1184,283 1183,284 1182,283 1180,283 1179,282 1178,282 1177,283 1176,282 1175,282 1174,281 1175,280 1174,281 1173,281 1172,280 1172,281 1171,282 1170,282 1169,281 1169,280 1168,281 1168,283 1167,284 1166,283 1165,283 1162,286 1161,285 1160,285 1159,286 1158,286 1157,287 1156,287 1155,286 1155,285 1154,284 1155,285 1155,286 1154,287 1153,287 1152,288 1149,285 1150,286 1148,288 1147,288 1146,289 1145,288 1144,289 1144,291 1143,292 1142,292 1141,293 1140,293 1139,292 1138,292 1138,293 1139,294 1138,295 1137,295 1136,296 1135,295 1135,293 1135,295 1134,296 1133,295 1132,295 1131,296 1129,296 1126,299 1127,298 1128,299 1128,300 1127,301 1124,301 1123,302 1123,303 1122,304 1121,303 1120,304 1120,305 1118,307 1116,305 1115,306 1115,307 1114,308 1114,309 1113,310 1111,308 1111,309 1110,310 1109,310 1109,311 1108,312 1103,312 1101,310 1102,311 1101,312 1100,312 1099,311 1098,312 1097,311 1097,312 1096,313 1095,313 1095,314 1094,315 1093,315 1092,314 1091,314 1090,315 1089,314 1089,313 1089,314 1088,315 1087,314 1087,313 1084,313 1083,314 1082,314 1081,313 1078,313 1077,314 1076,314 1075,313 1075,314 1074,315 1073,314 1073,313 1072,313 1072,315 1071,316 1067,316 1066,315 1065,315 1065,316 1064,317 1063,316 1063,315 1062,314 1061,315 1060,315 1059,314 1060,315 1059,316 1056,316 1054,314 1051,314 1050,315 1048,313 1048,314 1049,315 1047,317 1046,316 1045,317 1045,318 1044,319 1043,318 1042,318 1041,317 1039,317 1038,318 1037,317 1036,318 1035,317 1034,318 1033,317 1032,317 1031,316 1032,317 1031,318 1030,318 1029,317 1028,317 1027,318 1026,318 1025,319 1024,318 1024,317 1024,318 1023,319 1022,319 1021,318 1020,319 1019,319 1018,318 1018,319 1017,320 1016,319 1016,318 1015,318 1014,319 1013,319 1012,318 1011,319 1010,319 1009,320 1008,319 1008,318 1007,319 1006,318 1004,318 1002,320 1001,320 1000,319 1002,317 1000,317 1000,318 999,319 998,319 996,321 995,321 994,320 993,321 991,319 991,318 990,319 989,319 988,320 987,319 987,318 986,318 985,319 984,319 983,318 984,317 982,319 979,319 978,318 978,317 978,318 977,319 976,319 976,321 975,322 974,321 973,322 972,321 972,320 971,321 970,321 969,320 969,319 968,319 967,318 966,319 967,320 966,321 965,321 963,319 963,318 963,320 962,321 961,320 959,320 958,321 957,321 956,320 956,321 955,322 954,321 952,321 952,324 950,326 949,325 948,325 947,326 945,326 943,324 943,323 938,323 936,321 936,322 937,323 937,324 936,325 935,324 932,324 931,325 930,324 929,325 928,325 927,324 928,323 927,324 928,325 927,326 926,326 925,325 924,326 923,325 922,325 921,324 920,325 919,324 919,323 920,322 919,323 919,324 918,325 916,323 914,323 913,322 914,321 913,321 912,322 912,323 911,324 911,325 910,326 909,325 909,323 906,323 905,322 906,321 905,322 904,321 904,323 903,324 902,323 901,323 899,321 898,322 896,320 894,320 894,321 893,322 892,321 892,320 891,319 891,318 891,319 892,320 890,322 889,321 889,320 888,320 887,321 886,321 885,320 884,320 881,317 882,316 881,317 882,318 881,319 880,319 879,318 878,318 877,317 878,316 878,315 874,315 873,314 873,312 871,314 870,313 869,313 868,312 869,311 868,312 867,312 866,311 865,312 864,312 863,311 863,310 862,310 861,309 862,308 862,307 862,308 861,309 862,310 862,311 861,312 860,311 860,312 858,314 857,314 856,313 856,312 857,311 856,310 855,310 856,310 857,311 855,313 853,311 852,312 851,311 851,309 849,311 846,308 848,306 846,304 845,304 844,305 843,304 843,303 841,301 840,301 839,302 840,303 839,304 838,304 837,303 838,304 837,305 836,305 834,307 832,305 833,304 834,304 833,303 832,303 831,302 827,302 826,301 827,300 826,301 825,300 824,301 823,300 823,299 824,298 826,298 826,297 822,293 821,294 819,292 819,291 820,290 821,291 822,290 823,291 823,288 822,288 821,289 820,288 819,288 818,289 817,288 817,287 818,286 818,285 820,283 821,283 822,282 824,282 823,281 822,281 821,280 821,279 823,277 824,277 825,276 827,278 825,276 824,276 823,275 824,274 826,274 827,275 826,274 825,274 824,273 825,272 828,272 829,273 829,274 829,271 830,270 831,270 832,271 832,272 833,273 832,274 833,273 834,274 834,275 833,276 834,276 835,275 836,276 834,274 834,272 835,271 837,273 838,272 839,272 840,273 840,275 840,272 841,271 841,270 842,269 843,270 843,272 843,270 844,269 845,269 846,268 847,269 844,266 845,265 846,265 847,266 848,266 847,266 846,265 847,264 847,262 848,261 847,261 846,260 847,259 848,259 848,258 849,257 850,258 851,257 852,258 853,257 856,257 857,258 857,259 858,259 858,258 859,257 860,258 860,259 861,258 862,259 861,258 862,257 863,257 865,259 862,256 862,254 863,253 865,253 864,252 866,250 867,250 868,251 868,252 868,251 869,250 871,252 870,251 870,249 871,248 870,249 869,248 869,247 868,246 869,245 870,245 871,246 870,245 871,244 870,243 870,241 871,240 872,241 873,240 872,241 871,240 871,239 873,237 874,238 875,238 874,237 874,235 875,234 876,235 875,234 876,233 877,233 878,234 879,234 880,235 883,232 885,232 886,233 886,234 886,233 887,232 886,233 885,232 885,231 884,232 883,231 882,232 881,231 881,229 882,228 883,229 887,229 889,231 889,233 889,229 890,228 891,228 889,228 888,227 889,226 891,226 893,224 894,225 894,226 895,226 897,224 898,224 897,223 896,224 894,222 894,221 895,220 896,221 897,220 896,221 895,220 894,221 894,222 895,223 894,224 893,224 891,222 892,221 892,219 893,218 894,218 895,217 896,218 896,217 897,216 898,217 898,216 896,214 897,213 898,213 899,214 899,212 901,210 903,210 904,211 904,215 903,216 901,216 903,216 904,215 906,217 906,216 905,216 904,215 904,213 905,212 906,213 907,213 909,211 909,208 910,207 911,208 912,208 913,209 914,209 913,209 912,208 911,208 910,207 909,207 907,209 905,207 905,206 906,205 907,206 907,205 908,204 909,205 909,204 910,203 911,204 910,203 913,200 914,201 915,201 916,202 912,198 913,197 915,197 915,196 917,194 918,195 919,195 920,194 919,193 920,192 919,192 918,193 917,192 917,191 918,190 919,190 920,189 919,188 921,186 921,185 922,184 923,185 922,184 924,182 925,182 924,181 923,182 921,180 921,179 922,178 923,179 924,179 924,177 925,176 927,178 927,180 928,181 927,182 928,181 927,180 929,178 930,178 930,176 929,175 930,174 931,174 932,173 933,174 933,172 936,169 937,170 936,169 937,168 938,168 937,167 937,166 938,165 939,166 939,165 938,165 937,164 937,163 939,161 940,161 941,162 940,161 940,160 941,159 940,158 941,157 942,157 943,158 944,157 943,156 942,156 941,155 942,154 943,154 944,153 945,153 945,150 946,149 947,150 947,151 947,150 946,149 947,148 948,148 949,149 950,149 949,149 948,148 948,146 949,145 951,145 952,146 952,150 953,151 954,150 953,149 954,148 956,148 957,149 956,148 956,147 958,145 957,146 956,146 955,145 956,144 955,143 955,141 956,140 957,140 958,139 959,140 958,139 959,138 959,137 960,136 961,137 960,136 959,137 958,136 958,135 960,133 959,132 962,129 964,131 962,129 961,129 960,128 961,127 962,127 963,126 964,127 963,126 963,124 962,123 963,122 964,122 965,123 964,122 964,121 965,120 966,120 966,119 968,117 967,117 966,116 968,114 969,115 970,115 969,114 970,113 969,112 969,110 968,109 969,108 969,107 970,106 972,106 972,105 971,104 971,102 973,100 974,100 974,99 973,99 972,98 972,97 973,96 974,97 973,96 974,95 974,94 972,92 973,91 974,91 975,92 974,91 975,90 975,89 976,88 978,88 978,87 977,87 976,86 978,84 978,82 979,81 980,81 980,80 978,80 977,79 977,77 979,75 980,75 981,76 980,77 981,76 980,75 983,72 984,73 984,74 985,74 985,73 984,72 984,70 986,68 985,67 986,66 986,65 984,63 984,62 986,60 985,59 985,57 986,56 985,55 987,53 988,53 989,52 988,51 988,50 987,51 986,50 986,48 985,47 986,46 987,46 986,46 985,45 987,43 988,44 989,44 989,43 988,42 988,40 987,39 987,38 986,37 986,36 985,35 985,34 986,33 988,35 988,36 988,35 987,34 988,33 989,33 989,32 990,31 989,32 988,32 986,30 987,29 989,29 987,29 986,28 985,28 984,27 985,26 987,26 988,27 989,27 987,25 988,24 988,23 987,22 987,21 986,20 987,19 988,19 989,20 989,19 988,19 987,18 988,17 988,16 989,15 988,16 987,15 987,14 988,13 987,14 986,13 986,12 987,11 989,11 988,11 987,10 986,10 985,9 986,8 987,8 987,6 986,6 985,5 988,2 989,3 987,1 987,0 986,1 985,0 983,0 982,1 981,0 980,1 979,0 555,0 554,1 553,0" /></svg>