<?xml version="1.0" standalone="no"?>
<!DOCTYPE svg PUBLIC "-//W3C//DTD SVG 20010904//EN"
 "http://www.w3.org/TR/2001/REC-SVG-20010904/DTD/svg10.dtd">
<svg version="1.0" xmlns="http://www.w3.org/2000/svg"
 width="1536.000000pt" height="1024.000000pt" viewBox="0 0 1536.000000 1024.000000"
 preserveAspectRatio="xMidYMid meet">

<g transform="translate(0.000000,1024.000000) scale(0.100000,-0.100000)"
fill="#000000" stroke="none">
<path d="M5800 7630 c-8 -5 -11 -12 -7 -16 4 -4 13 -2 19 4 15 15 7 24 -12 12z"/>
<path d="M7470 7500 c0 -5 5 -10 11 -10 5 0 7 5 4 10 -3 6 -8 10 -11 10 -2 0
-4 -4 -4 -10z"/>
<path d="M5109 7470 c-125 -22 -216 -121 -282 -306 -38 -106 -92 -360 -132
-615 -67 -435 -89 -713 -89 -1151 -1 -192 -4 -348 -8 -348 -3 0 -18 21 -33 48
-125 217 -762 1118 -995 1407 -143 177 -282 328 -336 364 -64 42 -114 54 -206
49 -149 -9 -223 -87 -223 -238 0 -100 29 -160 172 -356 61 -83 115 -159 120
-170 6 -10 13 -59 16 -109 9 -142 86 -545 216 -1141 98 -451 104 -488 96 -614
-12 -174 -5 -249 31 -331 15 -34 48 -59 77 -59 15 0 67 -64 67 -83 0 -8 9 -35
20 -60 11 -25 23 -74 26 -109 4 -34 11 -72 17 -82 9 -18 10 -17 22 10 12 28
11 35 -16 99 -4 11 -11 35 -15 54 -5 29 -4 33 10 28 9 -4 16 -2 16 3 0 6 10
10 21 10 12 0 27 7 34 16 9 13 14 2 28 -62 9 -44 21 -133 27 -198 11 -111 32
-186 53 -186 13 0 2 222 -16 330 -9 52 -17 114 -17 137 0 64 37 152 86 205 53
57 56 85 19 209 -14 46 -30 104 -36 129 -30 130 -229 1175 -229 1199 0 17 -4
41 -10 55 -20 54 12 23 99 -96 174 -237 307 -430 445 -645 295 -461 340 -530
386 -598 26 -38 94 -149 150 -245 117 -198 155 -243 220 -260 91 -25 205 23
253 105 16 28 50 73 77 100 121 126 156 209 216 512 24 125 48 230 52 234 10
9 149 27 297 39 72 6 142 13 157 16 34 7 25 29 129 -315 125 -412 163 -491
253 -532 77 -35 207 -17 267 37 13 11 22 12 49 3 51 -18 173 -4 275 31 231 80
614 294 858 477 l97 74 0 -123 c1 -218 23 -308 97 -382 42 -41 111 -66 185
-66 69 0 219 51 403 137 197 93 291 135 515 230 96 41 180 77 186 79 7 3 5
-31 -8 -103 -20 -114 -18 -165 8 -217 59 -116 180 -158 339 -117 139 37 402
148 693 293 155 77 285 138 289 135 3 -4 -3 -48 -13 -99 -27 -133 -26 -270 3
-325 45 -83 120 -123 229 -123 76 0 127 17 430 138 218 88 645 238 727 256
l29 7 -8 -58 c-8 -63 -8 -70 -6 -125 3 -60 58 -93 81 -49 11 19 27 115 35 204
2 27 6 50 8 53 3 2 35 11 72 21 57 14 77 14 130 5 93 -18 117 -15 184 19 106
52 164 145 178 281 15 150 -63 252 -214 280 l-62 11 -127 -61 c-95 -45 -255
-102 -620 -221 -270 -89 -499 -161 -507 -161 -12 0 -15 6 -11 23 3 12 28 130
55 262 85 404 158 658 450 1575 148 463 154 487 154 575 0 87 -11 119 -66 181
-65 74 -196 112 -274 79 -104 -43 -136 -110 -243 -505 -176 -653 -333 -1302
-391 -1615 -17 -93 -35 -177 -39 -185 -5 -10 -20 -14 -42 -12 -58 5 -260 -18
-341 -38 -124 -32 -236 -75 -444 -170 -108 -50 -201 -90 -207 -90 -12 0 -6
121 20 378 15 158 19 175 37 182 12 5 104 32 206 60 294 82 522 160 640 218
71 35 100 125 67 205 -17 38 -80 98 -139 129 -36 19 -57 23 -128 22 -77 -2
-304 -42 -492 -88 -31 -8 -58 -12 -61 -10 -2 2 2 54 10 116 7 62 20 190 29
283 9 94 20 175 25 181 6 7 26 15 47 19 197 35 696 184 832 248 78 37 145 97
160 143 29 87 -51 218 -150 244 -80 21 -276 8 -410 -29 -270 -73 -309 -82
-383 -88 -58 -4 -93 -2 -142 12 -102 27 -166 18 -278 -39 l-93 -48 -439 5
c-432 5 -535 12 -665 44 -87 21 -107 33 -128 73 -30 59 -63 75 -150 75 -84 0
-117 -13 -166 -61 -50 -51 -69 -101 -73 -199 -4 -78 -1 -100 21 -165 15 -41
38 -92 53 -113 l27 -38 -12 -177 c-14 -198 -43 -566 -46 -569 -1 -1 -41 14
-90 34 -97 38 -197 58 -350 68 l-98 7 38 31 c75 59 242 233 304 317 80 108
117 186 136 290 28 147 -6 252 -117 362 -147 145 -315 197 -1114 345 -247 45
-319 36 -389 -51 -41 -50 -49 -149 -18 -219 23 -52 102 -141 144 -163 l28 -15
1 -312 c3 -737 29 -1350 74 -1707 22 -170 18 -170 -26 0 -162 632 -224 961
-375 1984 -19 131 -44 262 -55 291 -25 68 -80 119 -150 139 -106 32 -193 16
-265 -47 -89 -78 -96 -99 -294 -877 -72 -283 -171 -666 -220 -850 -49 -184
-90 -344 -93 -355 -11 -56 -22 198 -21 490 3 720 73 1133 279 1639 73 179 92
261 76 338 -29 136 -142 205 -292 178z m1921 -955 c256 -32 500 -126 500 -193
0 -67 -243 -330 -418 -452 -101 -71 -230 -145 -238 -137 -6 6 -23 502 -24 680
l0 117 28 0 c15 0 84 -7 152 -15z m2520 -298 c0 -23 -13 -134 -50 -412 -12
-88 -27 -209 -35 -269 -9 -77 -18 -113 -29 -120 -8 -6 -34 -22 -56 -36 -111
-67 -113 -214 -4 -309 l36 -32 -10 -71 c-6 -38 -12 -71 -14 -73 -2 -1 -59 -14
-128 -29 -181 -40 -447 -132 -665 -231 -104 -47 -196 -89 -202 -92 -16 -6 -17
71 -3 357 14 294 -3 261 149 288 294 52 583 143 685 215 42 30 66 91 57 147
-14 85 -45 125 -126 161 -62 27 -153 27 -419 -1 -105 -11 -218 -23 -250 -27
l-59 -6 7 144 c9 180 22 335 30 347 3 5 112 12 243 15 266 8 337 12 603 37
256 24 240 24 240 -3z m-3740 -304 c23 -172 62 -390 96 -546 20 -87 34 -160
32 -162 -1 -1 -69 -10 -150 -19 -82 -9 -155 -19 -163 -22 -22 -9 -20 3 35 238
60 251 91 391 115 511 10 48 19 87 20 87 2 0 8 -39 15 -87z m1745 -677 c85
-19 171 -61 198 -98 18 -24 19 -30 7 -59 -38 -91 -211 -273 -360 -379 -153
-108 -391 -242 -405 -228 -6 5 -55 643 -55 711 l0 55 108 7 c59 3 118 8 132
10 56 8 310 -5 375 -19z"/>
<path d="M7060 3869 c-621 -21 -1228 -98 -1776 -224 -567 -131 -765 -201 -853
-301 -77 -88 -81 -198 -9 -280 49 -56 100 -76 203 -82 112 -6 183 8 530 100
1069 283 1889 378 2930 339 813 -30 1338 -99 1905 -248 311 -81 370 -88 471
-56 108 35 173 143 149 249 -31 136 -134 207 -395 273 -241 60 -396 87 -775
136 -338 44 -927 81 -1510 95 -444 11 -536 11 -870 -1z"/>
<path d="M7678 3283 c7 -3 16 -2 19 1 4 3 -2 6 -13 5 -11 0 -14 -3 -6 -6z"/>
<path d="M8080 3265 c0 -14 6 -25 13 -25 20 0 25 9 20 31 -8 28 -33 24 -33 -6z"/>
<path d="M7290 3175 c0 -8 7 -15 15 -15 9 0 12 6 9 15 -4 8 -10 15 -15 15 -5
0 -9 -7 -9 -15z"/>
</g>
</svg>
